<svg viewBox="0 0 160 120" version="1.1" xmlns="http://www.w3.org/2000/svg"
     desc="Created with ImageTracer.java version 1.1.3">
    <path desc="l 1 p 0" fill="rgb(115,141,66)" stroke="rgb(115,141,66)" stroke-width="1" opacity="1.0"
          d="M 0.5 0.0 L 6.5 0.0 L 10.0 1.5 L 11.0 4.5 L 7.5 9.0 L 0.5 10.0 L 0.0 7.5 L 1.5 8.0 L 6.0 5.5 L 2.5 1.0 L 0.5 2.0 L 0.5 0.0 Z"/>
    <path desc="l 14 p 0" fill="rgb(66,86,27)" stroke="rgb(66,86,27)" stroke-width="1" opacity="1.0"
          d="M 9.5 0.0 L 11.0 0.5 L 11.5 2.0 L 12.5 0.0 L 43.0 0.5 L 40.5 4.0 L 39.0 4.5 L 40.0 7.5 L 39.5 9.0 L 49.5 13.0 L 49.0 11.5 Q 48.0 5.5 51.0 3.5 L 51.0 1.5 L 51.5 0.0 L 70.0 0.5 Q 63.4 0.9 60.0 4.5 Q 62.3 5.8 59.5 7.0 L 58.0 7.5 L 58.5 9.0 L 57.0 9.5 L 54.5 14.0 L 53.0 14.5 L 80.5 27.0 L 87.5 31.0 L 90.5 32.0 L 98.5 32.0 L 100.5 32.0 L 104.0 31.5 L 104.5 30.0 L 108.0 31.5 L 109.5 34.0 L 111.0 33.5 L 109.0 23.5 Q 109.9 16.9 114.5 14.0 L 116.0 13.5 L 114.0 9.5 L 116.0 8.5 L 116.5 7.0 L 118.0 6.5 L 117.0 1.5 L 119.5 0.0 L 121.5 0.0 L 160.0 0.5 L 160.0 25.5 Q 161.3 32.3 159.0 35.5 L 160.0 39.5 L 157.0 41.5 L 160.0 43.5 L 159.5 52.0 L 138.5 49.0 Q 137.3 51.3 136.0 48.5 L 130.5 41.0 Q 125.8 39.8 124.5 42.0 L 121.0 45.5 L 120.5 47.0 L 111.5 46.0 L 98.5 44.0 L 91.5 44.0 L 88.5 43.0 L 79.5 43.0 L 74.5 42.0 L 67.5 40.0 L 60.5 38.0 L 57.5 36.0 L 51.0 34.5 L 50.5 33.0 L 42.0 29.5 L 36.5 28.0 L 32.0 31.5 L 31.5 34.0 Q 25.5 34.0 22.5 37.0 L 21.5 35.0 L 17.5 34.0 L 15.5 37.0 L 0.0 35.5 L 0.5 10.0 Q 7.7 10.7 10.0 6.5 L 11.0 4.5 L 9.5 0.0 Z"/>
    <path desc="l 12 p 0" fill="rgb(23,33,44)" stroke="rgb(23,33,44)" stroke-width="1" opacity="1.0"
          d="M 43.5 0.0 L 51.0 0.5 L 50.0 2.5 L 50.0 4.5 L 49.0 11.5 L 49.5 13.0 L 39.0 8.5 L 39.0 6.5 L 39.5 4.0 L 41.0 3.5 L 43.5 0.0 Z"/>
    <path desc="l 12 p 1" fill="rgb(23,33,44)" stroke="rgb(23,33,44)" stroke-width="1" opacity="1.0"
          d="M 70.5 0.0 L 73.0 0.5 Q 73.4 6.1 77.5 8.0 L 87.5 8.0 L 92.5 7.0 L 98.5 2.0 L 100.5 8.0 L 103.5 9.0 L 103.5 7.0 L 106.5 9.0 L 109.0 7.5 L 108.5 9.0 L 112.0 7.5 L 111.5 4.0 L 110.0 4.5 L 111.5 0.0 L 118.0 0.5 L 118.0 2.5 L 117.5 7.0 L 116.0 7.5 L 115.5 9.0 L 114.0 9.5 L 115.5 13.0 L 117.0 12.5 L 112.0 16.5 Q 108.5 20.0 109.0 27.5 L 111.0 33.5 L 109.5 34.0 L 106.5 30.0 L 104.0 30.5 L 103.5 32.0 L 99.5 31.0 L 96.5 32.0 L 88.5 32.0 L 68.5 22.0 L 53.0 14.5 L 55.0 13.5 L 57.5 9.0 L 59.0 8.5 L 58.5 7.0 L 61.0 5.5 L 60.5 4.0 L 70.5 0.0 Z"/>
    <path desc="l 14 p 1" fill="rgb(66,86,27)" stroke="rgb(66,86,27)" stroke-width="1" opacity="1.0"
          d="M 73.5 0.0 L 111.0 0.5 L 110.0 4.5 L 112.0 4.5 L 111.5 8.0 L 108.5 9.0 L 106.5 9.0 L 104.5 8.0 L 102.5 9.0 L 100.0 7.5 L 98.5 2.0 L 92.5 7.0 L 88.5 8.0 L 77.5 8.0 Q 72.8 5.6 73.5 0.0 Z"/>
    <path desc="l 0 p 0" fill="rgb(170,176,103)" stroke="rgb(170,176,103)" stroke-width="1" opacity="1.0"
          d="M 1.5 1.0 L 6.0 4.5 L 4.5 7.0 L 1.5 8.0 Q -1.0 7.0 0.0 2.5 L 1.5 1.0 Z"/>
    <path desc="l 1 p 1" fill="rgb(115,141,66)" stroke="rgb(115,141,66)" stroke-width="1" opacity="1.0"
          d="M 46.5 15.0 L 55.0 18.5 L 63.5 21.0 L 84.0 31.5 L 85.0 33.5 L 82.5 35.0 L 48.0 18.5 L 47.5 17.0 L 46.0 17.5 L 46.5 15.0 Z"/>
    <path desc="l 15 p 0" fill="rgb(200,210,18)" stroke="rgb(200,210,18)" stroke-width="1" opacity="1.0"
          d="M 36.5 28.0 L 42.0 29.5 L 43.0 31.5 L 38.0 34.5 L 37.5 38.0 L 36.0 38.5 L 37.0 40.5 L 34.5 41.0 L 32.5 41.0 L 31.0 40.5 L 30.5 36.0 Q 26.8 35.3 26.0 37.5 L 25.5 39.0 L 24.0 38.5 L 25.5 35.0 L 27.5 35.0 L 33.0 32.5 L 34.5 29.0 L 36.5 28.0 Z"/>
    <path desc="l 9 p 0" fill="rgb(206,93,14)" stroke="rgb(206,93,14)" stroke-width="1" opacity="1.0"
          d="M 33.5 30.0 L 33.0 31.5 L 32.5 33.0 L 32.0 31.5 L 33.5 30.0 Z"/>
    <path desc="l 12 p 2" fill="rgb(23,33,44)" stroke="rgb(23,33,44)" stroke-width="1" opacity="1.0"
          d="M 111.5 30.0 L 113.0 30.5 L 114.0 34.5 L 112.5 35.0 L 111.5 30.0 Z"/>
    <path desc="l 2 p 0" fill="rgb(196,216,100)" stroke="rgb(196,216,100)" stroke-width="1" opacity="1.0"
          d="M 40.5 32.0 L 39.5 34.0 L 40.5 32.0 Z"/>
    <path desc="l 9 p 1" fill="rgb(206,93,14)" stroke="rgb(206,93,14)" stroke-width="1" opacity="1.0"
          d="M 42.5 32.0 L 44.5 33.0 Q 48.5 32.5 49.0 35.5 Q 50.3 40.8 47.5 42.0 L 42.5 43.0 L 38.0 39.5 Q 37.4 34.4 40.5 33.0 L 42.5 32.0 Z"/>
    <path desc="l 5 p 0" fill="rgb(235,245,182)" stroke="rgb(235,245,182)" stroke-width="1" opacity="1.0"
          d="M 47.5 32.0 L 51.0 36.5 L 50.0 36.5 L 47.5 32.0 Z"/>
    <path desc="l 12 p 3" fill="rgb(23,33,44)" stroke="rgb(23,33,44)" stroke-width="1" opacity="1.0"
          d="M 47.5 33.0 L 48.5 35.0 L 47.5 33.0 Z"/>
    <path desc="l 9 p 2" fill="rgb(206,93,14)" stroke="rgb(206,93,14)" stroke-width="1" opacity="1.0"
          d="M 17.5 34.0 L 21.0 35.5 Q 21.6 41.4 25.5 44.0 L 29.0 45.5 L 23.0 49.5 L 19.5 51.0 Q 16.5 49.5 19.5 48.0 Q 24.5 48.5 25.0 44.5 Q 23.8 41.8 22.5 44.0 L 17.0 43.5 L 19.0 42.5 L 18.5 41.0 L 22.0 40.5 L 16.0 36.5 L 17.5 34.0 Z"/>
    <path desc="l 15 p 1" fill="rgb(200,210,18)" stroke="rgb(200,210,18)" stroke-width="1" opacity="1.0"
          d="M 50.5 34.0 L 60.0 37.5 L 74.5 42.0 Q 84.3 44.3 91.0 49.5 L 109.0 59.5 L 107.0 60.5 L 106.5 64.0 L 102.0 60.5 L 104.0 59.5 L 94.5 55.0 L 85.5 52.0 L 84.0 52.5 L 83.5 51.0 L 72.5 46.0 L 70.5 46.0 Q 66.3 46.8 65.5 44.0 L 64.0 49.5 L 67.0 51.5 L 66.0 53.5 L 68.5 54.0 L 73.0 51.5 L 72.5 50.0 L 75.5 54.0 L 78.0 54.5 L 73.5 55.0 L 70.0 56.5 L 69.5 59.0 L 67.5 56.0 L 62.0 54.5 L 63.0 52.5 L 61.0 51.5 L 61.5 50.0 L 59.0 49.5 L 58.5 47.0 L 57.5 50.0 Q 54.8 48.8 57.0 47.5 L 55.0 44.5 L 56.0 42.5 L 54.5 42.0 L 53.5 46.0 L 51.0 44.5 L 53.0 40.5 L 51.0 37.5 L 51.5 36.0 L 50.5 34.0 Z"/>
    <path desc="l 12 p 4" fill="rgb(23,33,44)" stroke="rgb(23,33,44)" stroke-width="1" opacity="1.0"
          d="M 129.5 34.0 Q 134.0 33.0 135.0 35.5 L 129.5 36.0 L 129.5 34.0 Z"/>
    <path desc="l 1 p 2" fill="rgb(115,141,66)" stroke="rgb(115,141,66)" stroke-width="1" opacity="1.0"
          d="M 0.5 36.0 L 10.0 36.5 L 0.5 37.0 L 0.5 36.0 Z"/>
    <path desc="l 15 p 2" fill="rgb(200,210,18)" stroke="rgb(200,210,18)" stroke-width="1" opacity="1.0"
          d="M 21.5 36.0 L 22.5 38.0 L 21.0 37.5 L 21.5 36.0 Z"/>
    <path desc="l 0 p 1" fill="rgb(170,176,103)" stroke="rgb(170,176,103)" stroke-width="1" opacity="1.0"
          d="M 29.5 36.0 L 31.0 36.5 L 29.0 37.5 L 28.0 39.5 L 29.5 40.0 L 30.5 38.0 L 31.0 39.5 L 30.5 42.0 L 27.0 39.5 L 29.5 36.0 Z"/>
    <path desc="l 12 p 5" fill="rgb(23,33,44)" stroke="rgb(23,33,44)" stroke-width="1" opacity="1.0"
          d="M 49.5 36.0 L 50.0 41.5 L 49.0 43.5 L 51.0 43.5 L 48.0 45.5 L 48.5 44.0 L 42.5 46.0 L 39.5 42.0 Q 40.5 45.0 45.5 44.0 L 48.0 42.5 L 49.5 36.0 Z"/>
    <path desc="l 0 p 2" fill="rgb(170,176,103)" stroke="rgb(170,176,103)" stroke-width="1" opacity="1.0"
          d="M 0.5 37.0 L 14.5 38.0 Q 20.0 37.0 21.0 40.5 L 13.5 42.0 L 9.5 40.0 L 7.5 40.0 L 0.0 39.5 L 0.5 37.0 Z"/>
    <path desc="l 1 p 3" fill="rgb(115,141,66)" stroke="rgb(115,141,66)" stroke-width="1" opacity="1.0"
          d="M 11.5 37.0 Q 19.3 35.3 21.0 39.5 L 18.5 38.0 L 13.5 38.0 Q 10.5 38.5 11.5 37.0 Z"/>
    <path desc="l 1 p 4" fill="rgb(115,141,66)" stroke="rgb(115,141,66)" stroke-width="1" opacity="1.0"
          d="M 34.5 37.0 L 33.5 39.0 L 34.5 37.0 Z"/>
    <path desc="l 1 p 5" fill="rgb(115,141,66)" stroke="rgb(115,141,66)" stroke-width="1" opacity="1.0"
          d="M 22.5 38.0 L 25.5 43.0 Q 27.3 40.3 29.0 44.5 L 24.0 42.5 L 22.5 38.0 Z"/>
    <path desc="l 2 p 1" fill="rgb(196,216,100)" stroke="rgb(196,216,100)" stroke-width="1" opacity="1.0"
          d="M 26.5 38.0 L 28.0 40.5 L 26.0 39.5 L 26.5 38.0 Z"/>
    <path desc="l 1 p 6" fill="rgb(115,141,66)" stroke="rgb(115,141,66)" stroke-width="1" opacity="1.0"
          d="M 36.5 38.0 L 38.0 38.5 L 36.5 43.0 L 36.0 41.5 L 37.0 39.5 L 36.5 38.0 Z"/>
    <path desc="l 1 p 7" fill="rgb(115,141,66)" stroke="rgb(115,141,66)" stroke-width="1" opacity="1.0"
          d="M 50.5 38.0 L 51.5 40.0 L 50.5 38.0 Z"/>
    <path desc="l 0 p 3" fill="rgb(170,176,103)" stroke="rgb(170,176,103)" stroke-width="1" opacity="1.0"
          d="M 51.5 38.0 L 51.0 39.5 L 50.5 41.0 L 50.0 39.5 L 51.5 38.0 Z"/>
    <path desc="l 1 p 8" fill="rgb(115,141,66)" stroke="rgb(115,141,66)" stroke-width="1" opacity="1.0"
          d="M 0.5 40.0 L 8.0 40.5 L 9.5 44.0 L 13.5 45.0 Q 15.0 42.5 20.5 44.0 L 24.0 45.5 L 23.5 48.0 L 21.0 47.5 L 19.0 48.5 Q 17.3 51.8 15.5 48.0 L 9.5 45.0 L 8.0 45.5 L 7.5 44.0 L 4.5 43.0 L 4.0 45.5 L 6.0 45.5 L 7.5 48.0 L 9.5 49.0 L 11.0 48.5 L 10.5 50.0 L 12.5 51.0 L 14.0 50.5 L 13.5 52.0 L 16.5 54.0 Q 17.8 51.8 19.0 54.5 L 18.5 56.0 L 21.5 58.0 Q 23.3 55.3 25.0 59.5 L 27.5 64.0 L 33.0 66.5 L 33.5 68.0 L 35.0 67.5 L 38.5 72.0 Q 39.8 69.8 41.0 72.5 L 40.5 74.0 L 44.5 77.0 L 46.0 76.5 L 45.5 78.0 L 50.5 82.0 Q 51.8 79.8 53.0 82.5 L 56.5 87.0 L 58.0 86.5 L 51.5 90.0 L 40.0 79.5 L 38.5 76.0 L 33.0 71.5 L 33.5 70.0 L 31.5 69.0 L 30.0 69.5 Q 32.3 68.3 29.5 67.0 L 28.0 67.5 L 28.5 66.0 L 26.0 65.5 L 25.5 64.0 L 23.5 65.0 L 11.5 57.0 L 13.5 61.0 L 8.0 57.5 L 6.5 55.0 L 3.0 53.5 L 2.5 52.0 L 0.0 51.5 L 1.0 48.5 L 0.0 45.5 L 0.5 40.0 Z"/>
    <path desc="l 9 p 3" fill="rgb(206,93,14)" stroke="rgb(206,93,14)" stroke-width="1" opacity="1.0"
          d="M 9.5 40.0 L 14.5 42.0 L 16.5 41.0 L 15.5 43.0 L 10.5 44.0 Q 6.0 42.0 9.5 40.0 Z"/>
    <path desc="l 3 p 0" fill="rgb(183,200,114)" stroke="rgb(183,200,114)" stroke-width="1" opacity="1.0"
          d="M 30.5 40.0 L 31.5 42.0 L 30.5 40.0 Z"/>
    <path desc="l 0 p 4" fill="rgb(170,176,103)" stroke="rgb(170,176,103)" stroke-width="1" opacity="1.0"
          d="M 33.5 40.0 L 34.5 42.0 L 36.0 41.5 L 35.5 43.0 L 36.5 45.0 L 34.5 44.0 L 32.5 45.0 L 32.5 44.0 L 34.0 43.5 L 33.5 42.0 L 32.0 42.5 L 33.5 40.0 Z"/>
    <path desc="l 14 p 2" fill="rgb(66,86,27)" stroke="rgb(66,86,27)" stroke-width="1" opacity="1.0"
          d="M 38.5 40.0 L 42.5 43.0 L 47.5 42.0 L 47.5 43.0 L 41.0 44.5 L 41.5 46.0 L 37.0 42.5 L 38.5 40.0 Z"/>
    <path desc="l 14 p 3" fill="rgb(66,86,27)" stroke="rgb(66,86,27)" stroke-width="1" opacity="1.0"
          d="M 51.5 40.0 L 52.0 41.5 L 50.0 42.5 L 51.5 40.0 Z"/>
    <path desc="l 1 p 9" fill="rgb(115,141,66)" stroke="rgb(115,141,66)" stroke-width="1" opacity="1.0"
          d="M 158.5 40.0 L 160.0 40.5 L 159.5 43.0 L 157.0 41.5 L 158.5 40.0 Z"/>
    <path desc="l 15 p 3" fill="rgb(200,210,18)" stroke="rgb(200,210,18)" stroke-width="1" opacity="1.0"
          d="M 17.5 41.0 L 18.5 43.0 L 17.5 41.0 Z"/>
    <path desc="l 4 p 0" fill="rgb(229,240,102)" stroke="rgb(229,240,102)" stroke-width="1" opacity="1.0"
          d="M 37.5 41.0 L 38.5 43.0 L 37.5 41.0 Z"/>
    <path desc="l 15 p 4" fill="rgb(200,210,18)" stroke="rgb(200,210,18)" stroke-width="1" opacity="1.0"
          d="M 125.5 41.0 L 124.5 43.0 L 125.5 41.0 Z"/>
    <path desc="l 15 p 5" fill="rgb(200,210,18)" stroke="rgb(200,210,18)" stroke-width="1" opacity="1.0"
          d="M 127.5 41.0 Q 132.3 41.3 134.0 44.5 Q 138.2 48.8 139.0 56.5 L 140.0 59.5 L 142.0 63.5 L 142.0 65.5 L 141.5 67.0 L 139.0 67.5 L 140.5 70.0 L 142.0 70.5 Q 140.0 74.0 138.0 69.5 L 135.5 65.0 L 134.0 64.5 L 133.0 62.5 L 133.0 60.5 L 131.0 56.5 L 131.0 54.5 L 128.0 44.5 L 129.0 42.5 L 127.5 41.0 Z"/>
    <path desc="l 15 p 6" fill="rgb(200,210,18)" stroke="rgb(200,210,18)" stroke-width="1" opacity="1.0"
          d="M 27.5 42.0 L 26.5 44.0 L 27.5 42.0 Z"/>
    <path desc="l 2 p 2" fill="rgb(196,216,100)" stroke="rgb(196,216,100)" stroke-width="1" opacity="1.0"
          d="M 30.5 42.0 L 32.0 42.5 L 31.5 44.0 L 30.5 42.0 Z"/>
    <path desc="l 1 p 10" fill="rgb(115,141,66)" stroke="rgb(115,141,66)" stroke-width="1" opacity="1.0"
          d="M 49.5 42.0 L 51.5 46.0 L 55.0 46.5 L 51.5 47.0 L 49.5 44.0 L 48.0 44.5 L 49.5 42.0 Z"/>
    <path desc="l 4 p 1" fill="rgb(229,240,102)" stroke="rgb(229,240,102)" stroke-width="1" opacity="1.0"
          d="M 125.5 42.0 L 127.0 42.5 L 116.5 55.0 L 117.0 53.5 L 125.5 42.0 Z"/>
    <path desc="l 5 p 1" fill="rgb(235,245,182)" stroke="rgb(235,245,182)" stroke-width="1" opacity="1.0"
          d="M 127.5 42.0 L 126.5 44.0 L 127.5 42.0 Z"/>
    <path desc="l 14 p 4" fill="rgb(66,86,27)" stroke="rgb(66,86,27)" stroke-width="1" opacity="1.0"
          d="M 4.5 43.0 L 8.0 44.5 L 8.5 46.0 L 10.5 46.0 L 19.0 50.5 L 19.5 52.0 L 23.0 50.5 L 23.5 49.0 L 25.0 49.5 L 22.0 53.5 L 24.5 54.0 L 28.0 55.5 L 29.0 57.5 L 25.5 60.0 Q 16.4 50.6 4.0 44.5 L 4.5 43.0 Z"/>
    <path desc="l 14 p 5" fill="rgb(66,86,27)" stroke="rgb(66,86,27)" stroke-width="1" opacity="1.0"
          d="M 11.5 43.0 L 17.0 43.5 L 11.5 44.0 L 11.5 43.0 Z"/>
    <path desc="l 0 p 5" fill="rgb(170,176,103)" stroke="rgb(170,176,103)" stroke-width="1" opacity="1.0"
          d="M 28.5 43.0 L 31.0 43.5 L 28.5 44.0 L 28.5 43.0 Z"/>
    <path desc="l 6 p 0" fill="rgb(217,208,136)" stroke="rgb(217,208,136)" stroke-width="1" opacity="1.0"
          d="M 32.5 43.0 L 31.5 45.0 L 32.5 43.0 Z"/>
    <path desc="l 3 p 1" fill="rgb(183,200,114)" stroke="rgb(183,200,114)" stroke-width="1" opacity="1.0"
          d="M 36.5 43.0 L 39.0 44.5 L 38.5 46.0 L 37.0 45.5 L 36.5 43.0 Z"/>
    <path desc="l 1 p 11" fill="rgb(115,141,66)" stroke="rgb(115,141,66)" stroke-width="1" opacity="1.0"
          d="M 79.5 43.0 L 89.0 43.5 L 102.5 45.0 L 110.5 46.0 L 120.0 47.5 L 112.5 56.0 L 111.0 56.5 L 110.5 58.0 L 103.5 55.0 L 102.0 55.5 L 102.5 54.0 L 96.5 51.0 L 95.0 51.5 L 94.5 50.0 L 92.5 50.0 L 87.0 46.5 L 88.5 46.0 Q 89.8 48.3 94.5 47.0 L 94.5 46.0 L 85.5 45.0 L 85.5 47.0 L 82.0 44.5 Q 78.7 44.6 79.5 43.0 Z"/>
    <path desc="l 1 p 12" fill="rgb(115,141,66)" stroke="rgb(115,141,66)" stroke-width="1" opacity="1.0"
          d="M 123.5 43.0 L 121.5 46.0 L 123.5 43.0 Z"/>
    <path desc="l 14 p 6" fill="rgb(66,86,27)" stroke="rgb(66,86,27)" stroke-width="1" opacity="1.0"
          d="M 47.5 44.0 L 48.0 45.5 L 45.5 47.0 L 44.5 45.0 L 47.5 44.0 Z"/>
    <path desc="l 0 p 6" fill="rgb(170,176,103)" stroke="rgb(170,176,103)" stroke-width="1" opacity="1.0"
          d="M 54.5 44.0 L 57.0 44.5 L 56.5 46.0 L 54.5 49.0 L 53.0 48.5 L 55.0 47.5 L 54.5 44.0 Z"/>
    <path desc="l 2 p 3" fill="rgb(196,216,100)" stroke="rgb(196,216,100)" stroke-width="1" opacity="1.0"
          d="M 62.5 44.0 L 63.5 46.0 L 62.5 44.0 Z"/>
    <path desc="l 2 p 4" fill="rgb(196,216,100)" stroke="rgb(196,216,100)" stroke-width="1" opacity="1.0"
          d="M 65.5 44.0 L 67.5 47.0 L 69.0 46.5 L 67.0 47.5 L 65.0 47.5 L 65.5 44.0 Z"/>
    <path desc="l 6 p 1" fill="rgb(217,208,136)" stroke="rgb(217,208,136)" stroke-width="1" opacity="1.0"
          d="M 123.5 44.0 L 122.5 46.0 L 123.5 44.0 Z"/>
    <path desc="l 14 p 7" fill="rgb(66,86,27)" stroke="rgb(66,86,27)" stroke-width="1" opacity="1.0"
          d="M 29.5 45.0 L 35.5 48.0 L 37.5 48.0 L 49.5 49.0 L 51.0 48.5 L 51.5 50.0 L 53.5 49.0 L 57.5 50.0 L 59.0 49.5 L 59.5 51.0 L 61.0 51.5 L 58.0 52.5 L 58.5 55.0 L 60.5 54.0 L 61.0 55.5 L 56.0 58.5 L 56.5 60.0 L 46.0 55.5 L 45.5 54.0 Q 41.3 54.8 40.5 52.0 L 39.0 52.5 L 38.5 51.0 L 34.5 53.0 L 33.5 50.0 L 29.0 47.5 L 29.5 45.0 Z"/>
    <path desc="l 1 p 13" fill="rgb(115,141,66)" stroke="rgb(115,141,66)" stroke-width="1" opacity="1.0"
          d="M 35.5 45.0 L 34.5 47.0 L 35.5 45.0 Z"/>
    <path desc="l 0 p 7" fill="rgb(170,176,103)" stroke="rgb(170,176,103)" stroke-width="1" opacity="1.0"
          d="M 40.5 45.0 L 41.0 47.5 L 39.5 48.0 L 37.0 47.5 L 40.5 45.0 Z"/>
    <path desc="l 0 p 8" fill="rgb(170,176,103)" stroke="rgb(170,176,103)" stroke-width="1" opacity="1.0"
          d="M 85.5 45.0 L 95.0 46.5 L 89.5 47.0 L 87.5 46.0 Q 85.8 48.5 85.5 45.0 Z"/>
    <path desc="l 7 p 0" fill="rgb(171,201,188)" stroke="rgb(171,201,188)" stroke-width="1" opacity="1.0"
          d="M 125.5 45.0 L 121.5 50.0 L 125.5 45.0 Z"/>
    <path desc="l 13 p 0" fill="rgb(27,108,205)" stroke="rgb(27,108,205)" stroke-width="1" opacity="1.0"
          d="M 126.5 45.0 L 126.0 48.5 Q 123.9 57.9 117.5 63.0 L 114.0 61.5 L 117.0 60.5 L 118.0 57.5 L 116.0 57.5 L 126.5 45.0 Z"/>
    <path desc="l 0 p 9" fill="rgb(170,176,103)" stroke="rgb(170,176,103)" stroke-width="1" opacity="1.0"
          d="M 6.5 46.0 L 23.0 58.5 L 19.5 56.0 L 11.5 50.0 Q 6.9 48.8 6.5 46.0 Z"/>
    <path desc="l 1 p 14" fill="rgb(115,141,66)" stroke="rgb(115,141,66)" stroke-width="1" opacity="1.0"
          d="M 43.5 46.0 L 45.0 46.5 L 43.0 47.5 L 50.0 48.5 L 43.5 49.0 L 41.0 48.5 L 41.5 47.0 L 43.5 46.0 Z"/>
    <path desc="l 0 p 10" fill="rgb(170,176,103)" stroke="rgb(170,176,103)" stroke-width="1" opacity="1.0"
          d="M 96.5 46.0 L 104.5 48.0 L 109.5 47.0 L 111.5 48.0 L 113.5 48.0 Q 117.3 47.3 118.0 49.5 L 112.5 50.0 L 109.5 49.0 L 102.5 49.0 L 99.5 48.0 Q 95.8 48.5 96.5 46.0 Z"/>
    <path desc="l 7 p 1" fill="rgb(171,201,188)" stroke="rgb(171,201,188)" stroke-width="1" opacity="1.0"
          d="M 121.5 46.0 L 120.5 48.0 L 121.5 46.0 Z"/>
    <path desc="l 14 p 8" fill="rgb(66,86,27)" stroke="rgb(66,86,27)" stroke-width="1" opacity="1.0"
          d="M 26.5 47.0 L 28.0 47.5 L 26.0 48.5 L 26.5 47.0 Z"/>
    <path desc="l 1 p 15" fill="rgb(115,141,66)" stroke="rgb(115,141,66)" stroke-width="1" opacity="1.0"
          d="M 28.5 47.0 L 28.5 49.0 L 30.5 50.0 Q 31.8 47.8 33.0 50.5 L 33.0 52.5 Q 35.3 53.8 32.5 55.0 L 30.0 55.5 L 29.5 57.0 L 28.0 56.5 L 27.5 55.0 L 23.5 53.0 L 22.0 53.5 L 25.5 49.0 L 28.5 47.0 Z"/>
    <path desc="l 9 p 4" fill="rgb(206,93,14)" stroke="rgb(206,93,14)" stroke-width="1" opacity="1.0"
          d="M 32.5 47.0 L 35.0 48.5 L 36.0 50.5 L 32.5 47.0 Z"/>
    <path desc="l 0 p 11" fill="rgb(170,176,103)" stroke="rgb(170,176,103)" stroke-width="1" opacity="1.0"
          d="M 43.5 47.0 L 42.5 49.0 L 43.5 47.0 Z"/>
    <path desc="l 6 p 2" fill="rgb(217,208,136)" stroke="rgb(217,208,136)" stroke-width="1" opacity="1.0"
          d="M 48.5 47.0 L 51.0 47.5 L 48.5 48.0 L 48.5 47.0 Z"/>
    <path desc="l 2 p 5" fill="rgb(196,216,100)" stroke="rgb(196,216,100)" stroke-width="1" opacity="1.0"
          d="M 51.5 47.0 L 54.0 47.5 L 51.5 48.0 L 51.5 47.0 Z"/>
    <path desc="l 1 p 16" fill="rgb(115,141,66)" stroke="rgb(115,141,66)" stroke-width="1" opacity="1.0"
          d="M 56.5 47.0 L 56.0 48.5 L 55.5 50.0 L 54.0 49.5 L 56.5 47.0 Z"/>
    <path desc="l 0 p 12" fill="rgb(170,176,103)" stroke="rgb(170,176,103)" stroke-width="1" opacity="1.0"
          d="M 58.5 47.0 L 56.5 50.0 L 58.5 47.0 Z"/>
    <path desc="l 3 p 2" fill="rgb(183,200,114)" stroke="rgb(183,200,114)" stroke-width="1" opacity="1.0"
          d="M 71.5 47.0 L 75.0 49.5 L 74.5 51.0 L 73.0 50.5 L 72.5 49.0 L 71.5 51.0 L 70.0 48.5 L 71.5 47.0 Z"/>
    <path desc="l 6 p 3" fill="rgb(217,208,136)" stroke="rgb(217,208,136)" stroke-width="1" opacity="1.0"
          d="M 72.5 47.0 L 76.0 48.5 L 74.5 49.0 L 72.5 47.0 Z"/>
    <path desc="l 1 p 17" fill="rgb(115,141,66)" stroke="rgb(115,141,66)" stroke-width="1" opacity="1.0"
          d="M 127.5 47.0 L 129.0 50.5 L 127.5 51.0 Q 124.8 49.8 127.0 48.5 L 127.5 47.0 Z"/>
    <path desc="l 14 p 9" fill="rgb(66,86,27)" stroke="rgb(66,86,27)" stroke-width="1" opacity="1.0"
          d="M 0.5 48.0 L 11.5 57.0 L 20.5 62.0 L 22.0 61.5 Q 19.3 63.3 23.5 65.0 L 25.0 64.5 L 23.5 62.0 L 26.5 66.0 L 30.5 68.0 L 36.0 72.5 Q 33.3 74.3 37.5 76.0 L 39.0 76.5 L 41.5 81.0 L 47.5 87.0 L 54.0 91.5 L 54.5 93.0 L 56.0 93.5 L 55.5 95.0 L 57.5 96.0 L 59.0 95.5 L 58.0 97.5 Q 59.8 95.9 61.5 99.0 L 63.0 99.5 L 63.5 101.0 L 65.0 101.5 L 65.5 103.0 L 67.0 103.5 L 65.0 104.5 L 70.5 108.0 L 72.5 107.0 L 75.5 112.0 L 78.5 111.0 Q 79.5 117.0 84.0 119.5 L 81.5 120.0 Q 71.6 121.4 69.5 115.0 L 57.5 104.0 Q 31.5 78.5 1.5 57.0 L 0.0 57.5 L 0.0 55.5 L 0.5 52.0 L 3.0 52.5 L 4.5 55.0 L 7.0 54.5 L 0.5 48.0 Z"/>
    <path desc="l 0 p 13" fill="rgb(170,176,103)" stroke="rgb(170,176,103)" stroke-width="1" opacity="1.0"
          d="M 28.5 48.0 L 34.0 51.5 L 33.5 53.0 L 28.5 48.0 Z"/>
    <path desc="l 0 p 14" fill="rgb(170,176,103)" stroke="rgb(170,176,103)" stroke-width="1" opacity="1.0"
          d="M 65.5 48.0 L 65.5 50.0 L 68.5 51.0 L 69.5 49.0 L 71.0 49.5 L 71.5 51.0 L 73.0 51.5 L 71.5 52.0 L 69.5 52.0 L 67.5 53.0 L 66.5 51.0 L 64.0 49.5 L 65.5 48.0 Z"/>
    <path desc="l 3 p 3" fill="rgb(183,200,114)" stroke="rgb(183,200,114)" stroke-width="1" opacity="1.0"
          d="M 67.5 48.0 L 69.0 50.5 L 67.5 50.0 L 65.0 49.5 L 67.5 48.0 Z"/>
    <path desc="l 2 p 6" fill="rgb(196,216,100)" stroke="rgb(196,216,100)" stroke-width="1" opacity="1.0"
          d="M 76.5 48.0 L 75.5 50.0 L 76.5 48.0 Z"/>
    <path desc="l 8 p 0" fill="rgb(60,169,238)" stroke="rgb(60,169,238)" stroke-width="1" opacity="1.0"
          d="M 123.5 48.0 L 118.5 54.0 L 123.5 48.0 Z"/>
    <path desc="l 3 p 4" fill="rgb(183,200,114)" stroke="rgb(183,200,114)" stroke-width="1" opacity="1.0"
          d="M 76.5 49.0 L 77.5 51.0 Q 78.8 48.8 80.0 51.5 L 77.5 53.0 Q 75.0 52.0 76.5 49.0 Z"/>
    <path desc="l 7 p 2" fill="rgb(171,201,188)" stroke="rgb(171,201,188)" stroke-width="1" opacity="1.0"
          d="M 119.5 49.0 L 119.5 52.0 Q 116.5 50.5 119.5 49.0 Z"/>
    <path desc="l 1 p 18" fill="rgb(115,141,66)" stroke="rgb(115,141,66)" stroke-width="1" opacity="1.0"
          d="M 138.5 49.0 L 152.5 51.0 Q 157.9 50.1 160.0 52.5 Q 161.5 58.0 159.0 59.5 L 160.0 63.5 L 158.0 64.5 L 160.0 65.5 L 159.5 69.0 L 152.0 64.5 L 152.5 63.0 L 151.5 61.0 L 155.0 59.5 L 154.5 55.0 L 151.0 55.5 L 149.5 58.0 L 143.0 53.5 Q 145.3 52.3 142.5 51.0 L 137.0 50.5 L 138.5 49.0 Z"/>
    <path desc="l 12 p 6" fill="rgb(23,33,44)" stroke="rgb(23,33,44)" stroke-width="1" opacity="1.0"
          d="M 22.5 50.0 L 21.5 52.0 L 19.0 51.5 L 22.5 50.0 Z"/>
    <path desc="l 12 p 7" fill="rgb(23,33,44)" stroke="rgb(23,33,44)" stroke-width="1" opacity="1.0"
          d="M 33.5 50.0 L 36.5 52.0 L 38.5 51.0 L 39.5 53.0 Q 41.0 50.5 42.5 54.0 L 46.0 54.5 L 46.5 56.0 L 50.5 57.0 L 53.5 59.0 L 64.0 62.5 L 71.0 65.5 L 69.5 75.0 L 67.5 74.0 Q 66.3 76.3 65.0 73.5 L 62.5 70.0 L 60.0 71.5 L 59.5 73.0 L 55.5 71.0 L 52.5 72.0 L 46.5 72.0 L 35.0 67.5 L 30.0 64.5 L 29.5 63.0 Q 28.3 65.3 27.0 62.5 L 27.5 61.0 L 26.0 60.5 L 27.5 58.0 L 34.0 54.5 L 35.0 52.5 L 33.5 50.0 Z"/>
    <path desc="l 1 p 19" fill="rgb(115,141,66)" stroke="rgb(115,141,66)" stroke-width="1" opacity="1.0"
          d="M 59.5 50.0 L 62.0 50.5 L 59.5 51.0 L 59.5 50.0 Z"/>
    <path desc="l 0 p 15" fill="rgb(170,176,103)" stroke="rgb(170,176,103)" stroke-width="1" opacity="1.0"
          d="M 75.5 50.0 L 77.0 52.5 L 75.5 53.0 Q 72.5 51.5 75.5 50.0 Z"/>
    <path desc="l 14 p 10" fill="rgb(66,86,27)" stroke="rgb(66,86,27)" stroke-width="1" opacity="1.0"
          d="M 126.5 50.0 L 129.0 51.5 L 130.0 53.5 L 129.0 55.5 L 131.0 55.5 L 130.0 57.5 L 132.0 58.5 L 131.0 60.5 L 132.5 63.0 L 134.0 63.5 L 133.5 65.0 L 135.0 65.5 L 134.5 69.0 L 136.5 68.0 L 136.0 69.5 L 138.5 73.0 L 140.0 72.5 L 139.5 71.0 L 141.5 71.0 L 145.5 72.0 L 154.0 69.5 L 153.0 65.5 L 154.5 65.0 L 160.0 69.5 L 159.5 73.0 L 154.5 70.0 Q 149.0 73.0 155.5 76.0 L 160.0 78.5 L 159.5 83.0 L 150.0 76.5 L 151.0 74.5 L 149.5 74.0 L 148.5 76.0 L 147.0 76.5 L 146.5 78.0 L 146.0 76.5 L 147.0 74.5 L 143.5 72.0 L 140.0 73.5 L 140.5 75.0 L 142.5 75.0 L 144.0 75.5 L 145.0 77.5 L 143.5 77.0 L 138.0 79.5 L 140.5 81.0 L 141.5 79.0 L 143.5 79.0 Q 148.3 80.3 149.5 78.0 L 149.0 79.5 L 148.5 81.0 L 151.5 84.0 L 155.5 87.0 L 157.0 86.5 L 157.5 88.0 L 160.0 89.5 L 160.0 91.5 L 159.5 96.0 L 140.0 82.5 L 139.5 81.0 L 137.5 82.0 L 136.5 79.0 Q 135.0 81.5 133.5 78.0 L 118.5 68.0 L 116.0 73.5 L 127.0 80.5 L 127.5 82.0 L 128.5 80.0 L 132.0 81.5 L 129.0 82.5 L 133.5 85.0 L 135.0 84.5 L 134.5 86.0 L 137.5 89.0 L 141.0 91.5 L 140.5 93.0 L 153.5 102.0 L 155.0 101.5 L 154.0 103.5 L 160.0 107.5 L 158.0 108.5 L 158.5 110.0 L 155.5 105.0 L 121.0 80.5 Q 121.5 76.5 118.5 76.0 Q 114.3 76.8 113.5 74.0 L 112.0 74.5 L 112.5 73.0 L 115.0 72.5 L 118.5 65.0 Q 119.8 67.3 121.0 64.5 L 123.5 59.0 L 125.0 58.5 L 127.0 54.5 L 124.0 53.5 L 126.5 50.0 Z"/>
    <path desc="l 14 p 11" fill="rgb(66,86,27)" stroke="rgb(66,86,27)" stroke-width="1" opacity="1.0"
          d="M 25.5 51.0 L 29.0 53.5 L 32.5 55.0 L 34.0 54.5 L 31.0 56.5 L 31.5 58.0 L 27.5 53.0 L 25.5 51.0 Z"/>
    <path desc="l 0 p 16" fill="rgb(170,176,103)" stroke="rgb(170,176,103)" stroke-width="1" opacity="1.0"
          d="M 80.5 51.0 L 84.5 53.0 L 91.0 55.5 L 89.5 56.0 L 83.5 53.0 L 80.5 54.0 L 78.0 52.5 L 80.5 51.0 Z"/>
    <path desc="l 14 p 12" fill="rgb(66,86,27)" stroke="rgb(66,86,27)" stroke-width="1" opacity="1.0"
          d="M 96.5 51.0 L 110.0 58.5 L 107.5 59.0 L 100.5 54.0 Q 96.5 53.5 96.5 51.0 Z"/>
    <path desc="l 8 p 1" fill="rgb(60,169,238)" stroke="rgb(60,169,238)" stroke-width="1" opacity="1.0"
          d="M 117.5 51.0 L 116.5 53.0 L 117.5 51.0 Z"/>
    <path desc="l 9 p 5" fill="rgb(206,93,14)" stroke="rgb(206,93,14)" stroke-width="1" opacity="1.0"
          d="M 140.5 51.0 L 143.0 52.5 L 146.5 57.0 L 149.5 58.0 L 151.5 55.0 L 155.0 55.5 L 154.5 59.0 L 153.0 58.5 L 152.5 57.0 L 147.5 59.0 L 145.5 58.0 L 146.0 59.5 L 147.0 63.5 L 145.0 64.5 L 148.0 66.5 L 145.5 67.0 L 142.0 64.5 L 142.5 63.0 L 144.5 64.0 L 143.5 62.0 L 141.0 60.5 L 143.0 59.5 L 141.5 55.0 L 139.0 53.5 L 140.5 51.0 Z"/>
    <path desc="l 15 p 7" fill="rgb(200,210,18)" stroke="rgb(200,210,18)" stroke-width="1" opacity="1.0"
          d="M 142.5 51.0 L 143.5 53.0 L 142.5 51.0 Z"/>
    <path desc="l 15 p 8" fill="rgb(200,210,18)" stroke="rgb(200,210,18)" stroke-width="1" opacity="1.0"
          d="M 59.5 52.0 L 60.5 54.0 L 59.0 53.5 L 59.5 52.0 Z"/>
    <path desc="l 9 p 6" fill="rgb(206,93,14)" stroke="rgb(206,93,14)" stroke-width="1" opacity="1.0"
          d="M 60.5 52.0 L 62.0 54.5 L 61.0 54.5 L 60.5 52.0 Z"/>
    <path desc="l 1 p 20" fill="rgb(115,141,66)" stroke="rgb(115,141,66)" stroke-width="1" opacity="1.0"
          d="M 66.5 52.0 L 68.5 52.0 L 72.0 52.5 L 66.5 54.0 L 66.5 52.0 Z"/>
    <path desc="l 1 p 21" fill="rgb(115,141,66)" stroke="rgb(115,141,66)" stroke-width="1" opacity="1.0"
          d="M 138.5 52.0 L 140.5 55.0 L 142.0 55.5 L 141.5 58.0 L 139.0 56.5 L 138.5 52.0 Z"/>
    <path desc="l 4 p 2" fill="rgb(229,240,102)" stroke="rgb(229,240,102)" stroke-width="1" opacity="1.0"
          d="M 75.5 53.0 L 82.0 54.5 L 79.5 55.0 L 77.5 54.0 Q 74.5 54.5 75.5 53.0 Z"/>
    <path desc="l 2 p 7" fill="rgb(196,216,100)" stroke="rgb(196,216,100)" stroke-width="1" opacity="1.0"
          d="M 89.5 53.0 L 92.5 55.0 Q 94.0 52.5 95.5 56.0 L 100.0 57.5 L 100.5 59.0 L 102.0 58.5 L 101.5 61.0 L 93.5 55.0 L 91.5 55.0 L 89.5 53.0 Z"/>
    <path desc="l 13 p 1" fill="rgb(27,108,205)" stroke="rgb(27,108,205)" stroke-width="1" opacity="1.0"
          d="M 115.5 53.0 L 112.0 57.5 L 111.5 59.0 L 110.0 58.5 L 115.5 53.0 Z"/>
    <path desc="l 14 p 13" fill="rgb(66,86,27)" stroke="rgb(66,86,27)" stroke-width="1" opacity="1.0"
          d="M 108.5 54.0 L 112.0 56.5 L 110.5 56.0 L 108.5 54.0 Z"/>
    <path desc="l 7 p 3" fill="rgb(171,201,188)" stroke="rgb(171,201,188)" stroke-width="1" opacity="1.0"
          d="M 115.5 54.0 L 118.0 54.5 L 115.0 56.5 L 115.5 54.0 Z"/>
    <path desc="l 12 p 8" fill="rgb(23,33,44)" stroke="rgb(23,33,44)" stroke-width="1" opacity="1.0"
          d="M 124.5 54.0 L 127.0 54.5 L 124.5 59.0 L 123.0 59.5 L 122.0 62.5 L 118.5 67.0 L 117.0 66.5 Q 117.6 71.6 114.5 73.0 L 112.0 73.5 L 112.5 75.0 Q 113.8 72.8 115.0 75.5 L 108.0 77.5 L 103.5 78.0 L 104.5 76.0 L 116.0 68.5 Q 115.4 63.4 118.5 62.0 L 124.5 54.0 Z"/>
    <path desc="l 12 p 9" fill="rgb(23,33,44)" stroke="rgb(23,33,44)" stroke-width="1" opacity="1.0"
          d="M 129.5 54.0 L 131.0 57.5 L 130.0 57.5 L 129.5 56.0 L 128.5 58.0 L 128.0 56.5 L 129.5 54.0 Z"/>
    <path desc="l 1 p 22" fill="rgb(115,141,66)" stroke="rgb(115,141,66)" stroke-width="1" opacity="1.0"
          d="M 62.5 55.0 L 61.5 57.0 L 62.5 55.0 Z"/>
    <path desc="l 12 p 10" fill="rgb(23,33,44)" stroke="rgb(23,33,44)" stroke-width="1" opacity="1.0"
          d="M 63.5 55.0 L 67.0 56.5 Q 65.8 59.3 64.5 57.0 L 63.0 56.5 L 63.5 55.0 Z"/>
    <path desc="l 14 p 14" fill="rgb(66,86,27)" stroke="rgb(66,86,27)" stroke-width="1" opacity="1.0"
          d="M 71.5 55.0 Q 74.5 56.5 71.5 58.0 L 71.5 55.0 Z"/>
    <path desc="l 1 p 23" fill="rgb(115,141,66)" stroke="rgb(115,141,66)" stroke-width="1" opacity="1.0"
          d="M 72.5 55.0 L 75.0 55.5 Q 72.9 58.8 72.5 55.0 Z"/>
    <path desc="l 15 p 9" fill="rgb(200,210,18)" stroke="rgb(200,210,18)" stroke-width="1" opacity="1.0"
          d="M 81.5 55.0 L 87.0 56.5 L 84.5 57.0 L 82.5 56.0 L 81.5 55.0 Z"/>
    <path desc="l 4 p 3" fill="rgb(229,240,102)" stroke="rgb(229,240,102)" stroke-width="1" opacity="1.0"
          d="M 84.5 55.0 L 90.0 56.5 L 87.5 57.0 L 85.5 56.0 L 84.5 55.0 Z"/>
    <path desc="l 8 p 2" fill="rgb(60,169,238)" stroke="rgb(60,169,238)" stroke-width="1" opacity="1.0"
          d="M 114.5 55.0 L 112.5 58.0 L 114.5 55.0 Z"/>
    <path desc="l 8 p 3" fill="rgb(60,169,238)" stroke="rgb(60,169,238)" stroke-width="1" opacity="1.0"
          d="M 117.5 55.0 Q 120.3 56.3 118.0 57.5 L 119.0 59.5 L 117.0 59.5 L 115.0 62.5 L 117.0 63.5 L 115.5 64.0 Q 112.5 63.5 113.0 59.5 L 117.5 55.0 Z"/>
    <path desc="l 14 p 15" fill="rgb(66,86,27)" stroke="rgb(66,86,27)" stroke-width="1" opacity="1.0"
          d="M 123.5 55.0 L 122.5 57.0 L 123.5 55.0 Z"/>
    <path desc="l 1 p 24" fill="rgb(115,141,66)" stroke="rgb(115,141,66)" stroke-width="1" opacity="1.0"
          d="M 56.5 56.0 L 57.5 59.0 L 59.0 59.5 L 57.5 60.0 Q 53.0 58.0 56.5 56.0 Z"/>
    <path desc="l 0 p 17" fill="rgb(170,176,103)" stroke="rgb(170,176,103)" stroke-width="1" opacity="1.0"
          d="M 60.5 56.0 L 61.0 57.5 L 57.5 59.0 L 58.5 57.0 L 60.5 56.0 Z"/>
    <path desc="l 14 p 16" fill="rgb(66,86,27)" stroke="rgb(66,86,27)" stroke-width="1" opacity="1.0"
          d="M 67.5 56.0 L 68.0 57.5 L 66.0 58.5 L 67.5 56.0 Z"/>
    <path desc="l 12 p 11" fill="rgb(23,33,44)" stroke="rgb(23,33,44)" stroke-width="1" opacity="1.0"
          d="M 70.5 56.0 L 71.5 58.0 L 73.5 57.0 L 74.0 58.5 L 72.5 61.0 Q 68.8 59.2 70.5 56.0 Z"/>
    <path desc="l 12 p 12" fill="rgb(23,33,44)" stroke="rgb(23,33,44)" stroke-width="1" opacity="1.0"
          d="M 75.5 56.0 L 80.0 57.5 L 77.5 61.0 L 74.0 60.5 L 76.0 57.5 L 75.5 56.0 Z"/>
    <path desc="l 14 p 17" fill="rgb(66,86,27)" stroke="rgb(66,86,27)" stroke-width="1" opacity="1.0"
          d="M 78.5 56.0 L 81.0 57.5 L 79.0 58.5 L 79.5 57.0 L 78.5 56.0 Z"/>
    <path desc="l 0 p 18" fill="rgb(170,176,103)" stroke="rgb(170,176,103)" stroke-width="1" opacity="1.0"
          d="M 92.5 56.0 L 98.0 58.5 Q 96.8 61.3 95.5 59.0 L 93.0 58.5 L 93.5 57.0 L 92.5 56.0 Z"/>
    <path desc="l 0 p 19" fill="rgb(170,176,103)" stroke="rgb(170,176,103)" stroke-width="1" opacity="1.0"
          d="M 1.5 57.0 L 2.5 59.0 L 1.5 57.0 Z"/>
    <path desc="l 1 p 25" fill="rgb(115,141,66)" stroke="rgb(115,141,66)" stroke-width="1" opacity="1.0"
          d="M 2.5 57.0 L 7.5 63.0 Q 8.8 60.8 10.0 63.5 L 11.5 66.0 L 15.0 67.5 L 16.5 70.0 Q 18.3 67.3 20.0 71.5 L 20.5 73.0 L 26.0 76.5 L 26.5 78.0 Q 27.8 75.8 29.0 78.5 L 33.5 83.0 L 37.0 85.5 L 37.5 87.0 L 44.5 92.0 L 54.5 101.0 L 75.0 119.5 L 69.5 120.0 L 65.0 116.5 L 63.5 114.0 L 46.0 99.5 L 42.5 94.0 L 41.5 96.0 L 38.5 91.0 L 36.0 89.5 L 35.5 88.0 L 28.0 82.5 L 27.5 80.0 L 26.0 80.5 L 23.5 78.0 L 22.0 77.5 L 21.5 76.0 L 15.5 72.0 L 14.0 72.5 L 14.5 71.0 L 4.5 65.0 L 3.0 65.5 L 3.5 64.0 L 1.5 65.0 L 2.0 63.5 L 0.0 58.5 L 2.5 57.0 Z"/>
    <path desc="l 7 p 4" fill="rgb(171,201,188)" stroke="rgb(171,201,188)" stroke-width="1" opacity="1.0"
          d="M 61.5 57.0 L 63.0 57.5 L 62.5 59.0 L 61.5 57.0 Z"/>
    <path desc="l 12 p 13" fill="rgb(23,33,44)" stroke="rgb(23,33,44)" stroke-width="1" opacity="1.0"
          d="M 68.5 57.0 L 69.0 58.5 L 67.5 59.0 L 68.5 57.0 Z"/>
    <path desc="l 12 p 14" fill="rgb(23,33,44)" stroke="rgb(23,33,44)" stroke-width="1" opacity="1.0"
          d="M 82.5 57.0 L 84.0 60.5 L 82.5 63.0 L 80.5 62.0 L 78.0 63.5 L 82.5 57.0 Z"/>
    <path desc="l 1 p 26" fill="rgb(115,141,66)" stroke="rgb(115,141,66)" stroke-width="1" opacity="1.0"
          d="M 84.5 57.0 L 86.0 59.5 L 84.0 58.5 L 84.5 57.0 Z"/>
    <path desc="l 14 p 18" fill="rgb(66,86,27)" stroke="rgb(66,86,27)" stroke-width="1" opacity="1.0"
          d="M 86.5 57.0 L 87.5 59.0 L 86.5 57.0 Z"/>
    <path desc="l 15 p 10" fill="rgb(200,210,18)" stroke="rgb(200,210,18)" stroke-width="1" opacity="1.0"
          d="M 89.5 57.0 L 93.0 58.5 L 90.5 59.0 L 89.5 57.0 Z"/>
    <path desc="l 7 p 5" fill="rgb(171,201,188)" stroke="rgb(171,201,188)" stroke-width="1" opacity="1.0"
          d="M 113.5 57.0 L 113.0 58.5 L 112.5 61.0 L 112.0 58.5 L 113.5 57.0 Z"/>
    <path desc="l 14 p 19" fill="rgb(66,86,27)" stroke="rgb(66,86,27)" stroke-width="1" opacity="1.0"
          d="M 139.5 57.0 L 141.5 58.0 L 143.0 57.5 L 142.5 60.0 L 140.0 59.5 L 139.5 57.0 Z"/>
    <path desc="l 15 p 11" fill="rgb(200,210,18)" stroke="rgb(200,210,18)" stroke-width="1" opacity="1.0"
          d="M 151.5 57.0 L 153.0 59.5 L 151.0 60.5 L 152.0 58.5 L 151.5 57.0 Z"/>
    <path desc="l 0 p 20" fill="rgb(170,176,103)" stroke="rgb(170,176,103)" stroke-width="1" opacity="1.0"
          d="M 152.5 57.0 L 151.5 59.0 L 150.0 58.5 L 152.5 57.0 Z"/>
    <path desc="l 7 p 6" fill="rgb(171,201,188)" stroke="rgb(171,201,188)" stroke-width="1" opacity="1.0"
          d="M 58.5 58.0 L 61.0 59.5 L 59.5 60.0 L 58.5 58.0 Z"/>
    <path desc="l 1 p 27" fill="rgb(115,141,66)" stroke="rgb(115,141,66)" stroke-width="1" opacity="1.0"
          d="M 61.5 58.0 L 62.0 59.5 L 60.0 60.5 L 61.5 58.0 Z"/>
    <path desc="l 1 p 28" fill="rgb(115,141,66)" stroke="rgb(115,141,66)" stroke-width="1" opacity="1.0"
          d="M 63.5 58.0 L 65.0 58.5 L 64.5 60.0 L 63.5 58.0 Z"/>
    <path desc="l 8 p 4" fill="rgb(60,169,238)" stroke="rgb(60,169,238)" stroke-width="1" opacity="1.0"
          d="M 65.5 58.0 L 66.5 60.0 L 65.0 59.5 L 65.5 58.0 Z"/>
    <path desc="l 15 p 12" fill="rgb(200,210,18)" stroke="rgb(200,210,18)" stroke-width="1" opacity="1.0"
          d="M 74.5 58.0 L 74.0 59.5 L 73.5 61.0 L 73.0 59.5 L 74.5 58.0 Z"/>
    <path desc="l 12 p 15" fill="rgb(23,33,44)" stroke="rgb(23,33,44)" stroke-width="1" opacity="1.0"
          d="M 86.5 58.0 L 90.0 59.5 L 91.0 63.5 L 88.5 65.0 L 85.0 62.5 L 86.5 58.0 Z"/>
    <path desc="l 4 p 4" fill="rgb(229,240,102)" stroke="rgb(229,240,102)" stroke-width="1" opacity="1.0"
          d="M 104.5 58.0 L 106.0 58.5 L 105.5 60.0 L 104.5 58.0 Z"/>
    <path desc="l 14 p 20" fill="rgb(66,86,27)" stroke="rgb(66,86,27)" stroke-width="1" opacity="1.0"
          d="M 121.5 58.0 L 120.5 60.0 L 121.5 58.0 Z"/>
    <path desc="l 14 p 21" fill="rgb(66,86,27)" stroke="rgb(66,86,27)" stroke-width="1" opacity="1.0"
          d="M 157.5 58.0 L 160.0 59.5 L 158.5 59.0 L 157.5 58.0 Z"/>
    <path desc="l 14 p 22" fill="rgb(66,86,27)" stroke="rgb(66,86,27)" stroke-width="1" opacity="1.0"
          d="M 62.5 59.0 L 64.0 59.5 L 63.5 61.0 L 62.5 59.0 Z"/>
    <path desc="l 7 p 7" fill="rgb(171,201,188)" stroke="rgb(171,201,188)" stroke-width="1" opacity="1.0"
          d="M 67.5 59.0 L 70.0 60.5 L 68.5 61.0 L 67.5 59.0 Z"/>
    <path desc="l 1 p 29" fill="rgb(115,141,66)" stroke="rgb(115,141,66)" stroke-width="1" opacity="1.0"
          d="M 79.5 59.0 L 80.0 60.5 L 78.0 61.5 L 79.5 59.0 Z"/>
    <path desc="l 14 p 23" fill="rgb(66,86,27)" stroke="rgb(66,86,27)" stroke-width="1" opacity="1.0"
          d="M 84.5 59.0 L 86.0 61.5 L 85.0 61.5 L 84.5 59.0 Z"/>
    <path desc="l 12 p 16" fill="rgb(23,33,44)" stroke="rgb(23,33,44)" stroke-width="1" opacity="1.0"
          d="M 92.5 59.0 L 95.5 61.0 L 97.0 60.5 L 97.5 62.0 L 101.5 61.0 L 106.0 64.5 L 104.5 65.0 L 103.0 64.5 L 102.5 66.0 Q 95.0 67.5 92.0 64.5 L 91.0 60.5 L 92.5 59.0 Z"/>
    <path desc="l 14 p 24" fill="rgb(66,86,27)" stroke="rgb(66,86,27)" stroke-width="1" opacity="1.0"
          d="M 94.5 59.0 L 96.0 59.5 L 95.5 61.0 L 94.5 59.0 Z"/>
    <path desc="l 3 p 5" fill="rgb(183,200,114)" stroke="rgb(183,200,114)" stroke-width="1" opacity="1.0"
          d="M 98.5 59.0 L 101.0 60.5 L 99.5 60.0 L 98.5 59.0 Z"/>
    <path desc="l 2 p 8" fill="rgb(196,216,100)" stroke="rgb(196,216,100)" stroke-width="1" opacity="1.0"
          d="M 103.5 59.0 L 105.5 62.0 L 103.5 59.0 Z"/>
    <path desc="l 12 p 17" fill="rgb(23,33,44)" stroke="rgb(23,33,44)" stroke-width="1" opacity="1.0"
          d="M 131.5 59.0 L 133.0 62.5 L 132.0 62.5 L 131.5 59.0 Z"/>
    <path desc="l 0 p 21" fill="rgb(170,176,103)" stroke="rgb(170,176,103)" stroke-width="1" opacity="1.0"
          d="M 147.5 59.0 L 149.0 59.5 L 148.5 61.0 L 146.0 60.5 L 147.5 59.0 Z"/>
    <path desc="l 6 p 4" fill="rgb(217,208,136)" stroke="rgb(217,208,136)" stroke-width="1" opacity="1.0"
          d="M 150.5 59.0 L 149.5 61.0 L 150.5 59.0 Z"/>
    <path desc="l 4 p 5" fill="rgb(229,240,102)" stroke="rgb(229,240,102)" stroke-width="1" opacity="1.0"
          d="M 151.5 59.0 L 151.0 60.5 L 153.0 67.5 L 150.5 69.0 L 150.0 67.5 L 152.0 66.5 L 149.0 61.5 L 151.5 59.0 Z"/>
    <path desc="l 14 p 25" fill="rgb(66,86,27)" stroke="rgb(66,86,27)" stroke-width="1" opacity="1.0"
          d="M 153.5 59.0 L 155.0 59.5 L 154.5 61.0 L 160.0 64.5 L 158.5 65.0 L 152.0 60.5 L 153.5 59.0 Z"/>
    <path desc="l 0 p 22" fill="rgb(170,176,103)" stroke="rgb(170,176,103)" stroke-width="1" opacity="1.0"
          d="M 5.5 60.0 L 8.5 64.0 L 5.5 60.0 Z"/>
    <path desc="l 12 p 18" fill="rgb(23,33,44)" stroke="rgb(23,33,44)" stroke-width="1" opacity="1.0"
          d="M 64.5 60.0 L 70.0 62.5 L 68.5 62.0 Q 63.7 62.0 64.5 60.0 Z"/>
    <path desc="l 2 p 9" fill="rgb(196,216,100)" stroke="rgb(196,216,100)" stroke-width="1" opacity="1.0"
          d="M 107.5 60.0 L 109.0 60.5 L 108.5 62.0 L 107.0 61.5 L 107.5 60.0 Z"/>
    <path desc="l 4 p 6" fill="rgb(229,240,102)" stroke="rgb(229,240,102)" stroke-width="1" opacity="1.0"
          d="M 109.5 60.0 L 114.5 66.0 L 112.0 65.5 L 111.5 63.0 L 110.0 63.5 L 110.5 65.0 Q 107.8 63.8 109.5 60.0 Z"/>
    <path desc="l 15 p 13" fill="rgb(200,210,18)" stroke="rgb(200,210,18)" stroke-width="1" opacity="1.0"
          d="M 110.5 60.0 L 111.5 62.0 L 110.5 60.0 Z"/>
    <path desc="l 1 p 30" fill="rgb(115,141,66)" stroke="rgb(115,141,66)" stroke-width="1" opacity="1.0"
          d="M 124.5 60.0 L 129.0 62.5 L 128.5 64.0 L 124.0 61.5 L 124.5 60.0 Z"/>
    <path desc="l 0 p 23" fill="rgb(170,176,103)" stroke="rgb(170,176,103)" stroke-width="1" opacity="1.0"
          d="M 140.5 60.0 L 142.0 62.5 L 141.0 62.5 L 140.5 60.0 Z"/>
    <path desc="l 7 p 8" fill="rgb(171,201,188)" stroke="rgb(171,201,188)" stroke-width="1" opacity="1.0"
          d="M 147.5 60.0 L 151.0 66.5 L 150.0 66.5 L 148.0 62.5 L 147.5 60.0 Z"/>
    <path desc="l 14 p 26" fill="rgb(66,86,27)" stroke="rgb(66,86,27)" stroke-width="1" opacity="1.0"
          d="M 0.5 61.0 L 2.5 64.0 L 22.0 76.5 L 22.5 78.0 L 26.5 81.0 L 28.0 80.5 L 28.5 83.0 L 30.0 82.5 Q 27.8 83.8 30.5 85.0 L 36.0 88.5 L 37.5 91.0 L 40.0 92.5 L 40.5 94.0 Q 41.8 91.8 43.0 94.5 L 43.5 96.0 L 45.0 95.5 Q 42.5 97.0 46.0 98.5 L 46.5 100.0 L 65.0 115.5 L 65.5 117.0 L 67.5 118.0 L 69.0 117.5 L 68.5 120.0 Q 58.8 122.3 56.5 117.0 L 46.5 108.0 L 0.0 68.5 L 0.5 61.0 Z"/>
    <path desc="l 14 p 27" fill="rgb(66,86,27)" stroke="rgb(66,86,27)" stroke-width="1" opacity="1.0"
          d="M 26.5 61.0 L 30.0 63.5 L 29.5 65.0 L 28.5 63.0 L 27.0 63.5 L 27.5 62.0 L 26.5 61.0 Z"/>
    <path desc="l 1 p 31" fill="rgb(115,141,66)" stroke="rgb(115,141,66)" stroke-width="1" opacity="1.0"
          d="M 62.5 61.0 L 67.0 62.5 L 65.5 63.0 L 63.5 62.0 L 62.5 61.0 Z"/>
    <path desc="l 14 p 28" fill="rgb(66,86,27)" stroke="rgb(66,86,27)" stroke-width="1" opacity="1.0"
          d="M 65.5 61.0 L 64.5 63.0 L 65.5 61.0 Z"/>
    <path desc="l 13 p 2" fill="rgb(27,108,205)" stroke="rgb(27,108,205)" stroke-width="1" opacity="1.0"
          d="M 69.5 61.0 L 72.0 61.5 L 72.0 63.5 L 71.5 65.0 L 69.5 61.0 Z"/>
    <path desc="l 14 p 29" fill="rgb(66,86,27)" stroke="rgb(66,86,27)" stroke-width="1" opacity="1.0"
          d="M 75.5 61.0 L 78.5 62.0 L 80.0 61.5 L 82.5 64.0 L 85.5 63.0 L 89.5 66.0 L 93.5 65.0 L 96.5 66.0 L 103.0 66.5 Q 102.3 68.8 98.5 68.0 L 93.5 69.0 Q 92.1 66.4 87.5 67.0 L 78.0 65.5 L 79.0 63.5 Q 74.8 63.0 75.5 61.0 Z"/>
    <path desc="l 5 p 2" fill="rgb(235,245,182)" stroke="rgb(235,245,182)" stroke-width="1" opacity="1.0"
          d="M 112.5 61.0 L 114.5 64.0 L 112.5 61.0 Z"/>
    <path desc="l 1 p 32" fill="rgb(115,141,66)" stroke="rgb(115,141,66)" stroke-width="1" opacity="1.0"
          d="M 146.5 61.0 L 150.0 66.5 L 148.5 66.0 L 147.0 65.5 L 146.5 61.0 Z"/>
    <path desc="l 14 p 30" fill="rgb(66,86,27)" stroke="rgb(66,86,27)" stroke-width="1" opacity="1.0"
          d="M 67.5 62.0 L 71.0 63.5 L 70.5 65.0 L 67.5 62.0 Z"/>
    <path desc="l 5 p 3" fill="rgb(235,245,182)" stroke="rgb(235,245,182)" stroke-width="1" opacity="1.0"
          d="M 74.5 62.0 L 78.0 63.5 L 76.5 63.0 Q 73.5 63.5 74.5 62.0 Z"/>
    <path desc="l 4 p 7" fill="rgb(229,240,102)" stroke="rgb(229,240,102)" stroke-width="1" opacity="1.0"
          d="M 136.5 62.0 L 139.0 62.5 L 140.0 65.5 L 137.0 66.5 L 139.0 70.5 L 137.0 69.5 L 135.0 65.5 L 137.0 65.5 L 136.5 62.0 Z"/>
    <path desc="l 15 p 14" fill="rgb(200,210,18)" stroke="rgb(200,210,18)" stroke-width="1" opacity="1.0"
          d="M 73.5 63.0 L 78.0 64.5 L 77.5 66.0 L 76.0 66.5 L 77.0 70.5 L 74.5 79.0 L 73.5 76.0 L 72.5 79.0 L 71.0 78.5 L 73.0 82.5 L 70.0 82.5 L 69.0 79.5 L 70.0 75.5 L 72.0 68.5 L 72.0 66.5 L 73.5 63.0 Z"/>
    <path desc="l 5 p 4" fill="rgb(235,245,182)" stroke="rgb(235,245,182)" stroke-width="1" opacity="1.0"
          d="M 107.5 63.0 L 108.5 65.0 L 107.5 63.0 Z"/>
    <path desc="l 15 p 15" fill="rgb(200,210,18)" stroke="rgb(200,210,18)" stroke-width="1" opacity="1.0"
          d="M 113.5 63.0 L 114.5 65.0 L 113.5 63.0 Z"/>
    <path desc="l 4 p 8" fill="rgb(229,240,102)" stroke="rgb(229,240,102)" stroke-width="1" opacity="1.0"
          d="M 140.5 63.0 Q 143.5 63.5 143.0 67.5 L 139.5 69.0 L 139.0 67.5 L 142.0 66.5 L 140.5 63.0 Z"/>
    <path desc="l 0 p 24" fill="rgb(170,176,103)" stroke="rgb(170,176,103)" stroke-width="1" opacity="1.0"
          d="M 144.5 63.0 L 147.0 64.5 L 145.5 65.0 L 144.5 63.0 Z"/>
    <path desc="l 0 p 25" fill="rgb(170,176,103)" stroke="rgb(170,176,103)" stroke-width="1" opacity="1.0"
          d="M 10.5 64.0 L 11.5 66.0 L 10.5 64.0 Z"/>
    <path desc="l 13 p 3" fill="rgb(27,108,205)" stroke="rgb(27,108,205)" stroke-width="1" opacity="1.0"
          d="M 106.5 64.0 L 107.0 65.5 L 102.5 69.0 L 102.0 67.5 L 104.0 66.5 L 104.5 65.0 L 106.0 65.5 L 106.5 64.0 Z"/>
    <path desc="l 6 p 5" fill="rgb(217,208,136)" stroke="rgb(217,208,136)" stroke-width="1" opacity="1.0"
          d="M 109.5 64.0 L 110.5 66.0 L 109.5 64.0 Z"/>
    <path desc="l 12 p 19" fill="rgb(23,33,44)" stroke="rgb(23,33,44)" stroke-width="1" opacity="1.0"
          d="M 130.5 64.0 L 131.5 66.0 L 133.5 67.0 Q 134.8 64.8 136.0 67.5 L 139.0 72.5 L 136.0 70.5 L 135.5 69.0 L 133.5 68.0 L 131.5 69.0 L 130.5 64.0 Z"/>
    <path desc="l 7 p 9" fill="rgb(171,201,188)" stroke="rgb(171,201,188)" stroke-width="1" opacity="1.0"
          d="M 107.5 65.0 L 113.0 67.5 L 111.5 70.0 L 112.0 68.5 L 111.5 67.0 Q 106.7 67.1 107.5 65.0 Z"/>
    <path desc="l 1 p 33" fill="rgb(115,141,66)" stroke="rgb(115,141,66)" stroke-width="1" opacity="1.0"
          d="M 121.5 65.0 L 124.0 66.5 L 122.5 66.0 L 121.5 65.0 Z"/>
    <path desc="l 12 p 20" fill="rgb(23,33,44)" stroke="rgb(23,33,44)" stroke-width="1" opacity="1.0"
          d="M 78.5 66.0 L 92.5 68.0 L 94.5 68.0 L 100.0 68.5 L 95.0 73.5 L 91.5 75.0 L 83.5 75.0 L 77.0 72.5 L 78.5 66.0 Z"/>
    <path desc="l 0 p 26" fill="rgb(170,176,103)" stroke="rgb(170,176,103)" stroke-width="1" opacity="1.0"
          d="M 143.5 66.0 L 145.0 66.5 L 144.5 68.0 L 143.5 66.0 Z"/>
    <path desc="l 8 p 5" fill="rgb(60,169,238)" stroke="rgb(60,169,238)" stroke-width="1" opacity="1.0"
          d="M 108.5 67.0 L 110.0 67.5 L 106.0 70.5 L 104.5 73.0 L 103.0 73.5 L 102.5 75.0 L 102.0 73.5 L 106.5 68.0 L 108.5 67.0 Z"/>
    <path desc="l 13 p 4" fill="rgb(27,108,205)" stroke="rgb(27,108,205)" stroke-width="1" opacity="1.0"
          d="M 110.5 67.0 L 112.0 67.5 L 107.5 74.0 Q 102.5 80.0 93.5 82.0 Q 92.0 79.5 90.5 83.0 L 85.5 86.0 L 87.5 83.0 L 97.5 76.0 L 98.0 77.5 L 97.5 79.0 L 100.0 77.5 L 100.5 76.0 L 103.0 74.5 L 102.5 73.0 L 101.0 73.5 L 105.0 70.5 L 103.5 73.0 L 106.0 71.5 L 107.5 69.0 L 110.5 67.0 Z"/>
    <path desc="l 3 p 6" fill="rgb(183,200,114)" stroke="rgb(183,200,114)" stroke-width="1" opacity="1.0"
          d="M 114.5 67.0 L 113.5 69.0 L 114.5 67.0 Z"/>
    <path desc="l 2 p 10" fill="rgb(196,216,100)" stroke="rgb(196,216,100)" stroke-width="1" opacity="1.0"
          d="M 143.5 67.0 L 144.5 69.0 L 143.5 67.0 Z"/>
    <path desc="l 4 p 9" fill="rgb(229,240,102)" stroke="rgb(229,240,102)" stroke-width="1" opacity="1.0"
          d="M 147.5 67.0 L 149.0 67.5 L 148.5 69.0 L 146.5 69.0 L 145.0 68.5 L 147.5 67.0 Z"/>
    <path desc="l 0 p 27" fill="rgb(170,176,103)" stroke="rgb(170,176,103)" stroke-width="1" opacity="1.0"
          d="M 15.5 68.0 L 16.5 70.0 L 15.5 68.0 Z"/>
    <path desc="l 0 p 28" fill="rgb(170,176,103)" stroke="rgb(170,176,103)" stroke-width="1" opacity="1.0"
          d="M 35.5 68.0 L 36.5 70.0 L 35.5 68.0 Z"/>
    <path desc="l 13 p 5" fill="rgb(27,108,205)" stroke="rgb(27,108,205)" stroke-width="1" opacity="1.0"
          d="M 100.5 68.0 L 101.0 69.5 L 96.5 73.0 L 100.5 68.0 Z"/>
    <path desc="l 8 p 6" fill="rgb(60,169,238)" stroke="rgb(60,169,238)" stroke-width="1" opacity="1.0"
          d="M 101.5 68.0 L 102.0 69.5 L 100.0 70.5 L 101.5 68.0 Z"/>
    <path desc="l 7 p 10" fill="rgb(171,201,188)" stroke="rgb(171,201,188)" stroke-width="1" opacity="1.0"
          d="M 103.5 68.0 Q 106.3 69.3 104.0 70.5 L 99.5 75.0 L 102.0 71.5 Q 105.1 69.8 103.5 68.0 Z"/>
    <path desc="l 0 p 29" fill="rgb(170,176,103)" stroke="rgb(170,176,103)" stroke-width="1" opacity="1.0"
          d="M 118.5 68.0 L 124.0 72.5 L 121.5 71.0 L 118.5 68.0 Z"/>
    <path desc="l 5 p 5" fill="rgb(235,245,182)" stroke="rgb(235,245,182)" stroke-width="1" opacity="1.0"
          d="M 140.5 68.0 L 144.0 68.5 L 143.5 70.0 Q 139.8 70.5 140.5 68.0 Z"/>
    <path desc="l 1 p 34" fill="rgb(115,141,66)" stroke="rgb(115,141,66)" stroke-width="1" opacity="1.0"
          d="M 0.5 69.0 L 4.5 74.0 Q 5.8 71.8 7.0 74.5 L 8.5 77.0 Q 9.8 74.8 11.0 77.5 L 13.5 81.0 Q 15.3 78.3 17.0 82.5 L 18.5 85.0 Q 20.3 82.3 22.0 86.5 L 24.5 90.0 Q 25.8 87.8 27.0 90.5 L 32.5 96.0 L 59.0 119.5 L 52.5 120.0 L 48.0 116.5 L 47.5 115.0 L 44.0 112.5 L 44.5 111.0 Q 39.5 111.5 39.0 107.5 L 28.0 99.5 Q 30.3 98.3 27.5 97.0 L 25.0 98.5 L 26.0 96.5 L 20.5 93.0 L 20.5 95.0 Q 17.8 93.8 20.0 92.5 L 18.5 90.0 L 16.0 89.5 L 15.5 88.0 Q 14.3 90.3 13.0 87.5 L 12.5 85.0 L 6.5 81.0 L 5.0 81.5 L 5.5 80.0 L 3.0 79.5 Q 5.3 78.3 2.5 77.0 L 0.0 75.5 L 0.5 69.0 Z"/>
    <path desc="l 14 p 31" fill="rgb(66,86,27)" stroke="rgb(66,86,27)" stroke-width="1" opacity="1.0"
          d="M 37.5 69.0 L 49.5 72.0 Q 54.3 71.3 56.0 73.5 L 56.5 76.0 L 58.0 75.5 L 58.5 77.0 L 61.5 78.0 Q 64.3 76.8 62.0 75.5 L 60.5 73.0 L 63.0 75.5 L 63.0 77.5 L 62.5 79.0 L 64.0 79.5 L 58.5 80.0 L 54.5 77.0 L 52.5 78.0 L 46.0 76.5 L 45.5 75.0 Q 44.3 77.3 43.0 74.5 L 40.5 71.0 Q 36.8 71.5 37.5 69.0 Z"/>
    <path desc="l 4 p 10" fill="rgb(229,240,102)" stroke="rgb(229,240,102)" stroke-width="1" opacity="1.0"
          d="M 103.5 69.0 L 102.5 71.0 L 100.0 72.5 L 98.5 75.0 L 93.5 79.0 L 92.0 78.5 L 90.5 81.0 L 91.0 79.5 L 92.5 77.0 L 99.0 73.5 L 101.5 70.0 L 103.5 69.0 Z"/>
    <path desc="l 14 p 32" fill="rgb(66,86,27)" stroke="rgb(66,86,27)" stroke-width="1" opacity="1.0"
          d="M 113.5 69.0 L 114.0 70.5 L 112.5 71.0 L 113.5 69.0 Z"/>
    <path desc="l 1 p 35" fill="rgb(115,141,66)" stroke="rgb(115,141,66)" stroke-width="1" opacity="1.0"
          d="M 118.5 69.0 L 121.0 69.5 L 120.5 71.0 L 122.5 72.0 Q 123.8 69.8 125.0 72.5 L 126.5 75.0 L 128.0 74.5 L 129.5 77.0 L 131.0 76.5 L 132.5 79.0 L 134.0 78.5 L 134.5 80.0 L 138.5 83.0 L 140.0 82.5 L 139.5 84.0 L 141.5 85.0 L 143.0 84.5 L 142.5 86.0 L 144.5 87.0 L 146.0 86.5 Q 143.8 87.8 146.5 89.0 L 148.5 88.0 L 148.5 90.0 L 150.5 91.0 L 152.0 90.5 L 151.5 92.0 L 154.5 94.0 L 156.0 93.5 L 156.5 96.0 L 157.5 94.0 Q 161.9 97.1 160.0 106.5 L 158.5 106.0 L 157.0 106.5 L 160.0 108.5 L 159.5 114.0 L 154.5 111.0 L 154.0 113.5 L 155.0 115.5 L 154.5 117.0 L 157.5 119.0 L 158.0 117.5 L 157.5 116.0 L 160.0 119.5 L 157.5 120.0 L 140.0 119.5 L 139.5 118.0 L 138.5 120.0 L 127.0 109.5 L 126.5 108.0 L 125.0 108.5 L 122.0 105.5 Q 124.3 104.3 121.5 103.0 L 120.5 105.0 Q 118.3 100.8 116.0 102.5 L 114.5 98.0 L 113.0 98.5 L 113.5 97.0 L 112.0 96.5 L 111.5 95.0 L 110.0 95.5 L 118.5 89.0 L 121.5 90.0 Q 123.3 92.8 125.0 88.5 L 119.0 83.5 L 119.5 82.0 L 122.5 81.0 L 126.0 83.5 L 127.5 86.0 L 129.0 85.5 L 130.5 88.0 L 132.0 87.5 L 133.5 90.0 Q 138.5 87.5 133.5 85.0 L 129.0 82.5 L 132.0 81.5 L 128.5 80.0 L 127.5 82.0 L 126.5 80.0 L 116.0 73.5 L 118.5 69.0 Z"/>
    <path desc="l 6 p 6" fill="rgb(217,208,136)" stroke="rgb(217,208,136)" stroke-width="1" opacity="1.0"
          d="M 144.5 69.0 L 151.0 69.5 L 143.5 71.0 L 144.5 69.0 Z"/>
    <path desc="l 3 p 7" fill="rgb(183,200,114)" stroke="rgb(183,200,114)" stroke-width="1" opacity="1.0"
          d="M 37.5 70.0 L 38.5 72.0 L 37.5 70.0 Z"/>
    <path desc="l 14 p 33" fill="rgb(66,86,27)" stroke="rgb(66,86,27)" stroke-width="1" opacity="1.0"
          d="M 61.5 70.0 L 65.0 72.5 L 63.5 72.0 L 60.0 71.5 L 61.5 70.0 Z"/>
    <path desc="l 1 p 36" fill="rgb(115,141,66)" stroke="rgb(115,141,66)" stroke-width="1" opacity="1.0"
          d="M 75.5 70.0 L 76.5 72.0 L 75.5 70.0 Z"/>
    <path desc="l 1 p 37" fill="rgb(115,141,66)" stroke="rgb(115,141,66)" stroke-width="1" opacity="1.0"
          d="M 111.5 70.0 L 110.5 72.0 L 111.5 70.0 Z"/>
    <path desc="l 0 p 30" fill="rgb(170,176,103)" stroke="rgb(170,176,103)" stroke-width="1" opacity="1.0"
          d="M 146.5 70.0 L 149.0 70.5 L 146.5 71.0 L 146.5 70.0 Z"/>
    <path desc="l 1 p 38" fill="rgb(115,141,66)" stroke="rgb(115,141,66)" stroke-width="1" opacity="1.0"
          d="M 149.5 70.0 L 152.0 70.5 L 149.5 71.0 L 149.5 70.0 Z"/>
    <path desc="l 1 p 39" fill="rgb(115,141,66)" stroke="rgb(115,141,66)" stroke-width="1" opacity="1.0"
          d="M 154.5 70.0 L 156.0 70.5 L 156.5 72.0 Q 157.8 69.8 159.0 72.5 L 160.0 77.5 L 158.5 78.0 L 156.5 78.0 L 154.0 76.5 Q 156.5 75.0 153.0 73.5 L 154.5 70.0 Z"/>
    <path desc="l 12 p 21" fill="rgb(23,33,44)" stroke="rgb(23,33,44)" stroke-width="1" opacity="1.0"
          d="M 40.5 71.0 L 42.5 74.0 L 40.5 71.0 Z"/>
    <path desc="l 1 p 40" fill="rgb(115,141,66)" stroke="rgb(115,141,66)" stroke-width="1" opacity="1.0"
          d="M 56.5 71.0 L 58.5 74.0 L 61.0 72.5 L 61.0 74.5 L 62.5 78.0 L 65.0 78.5 L 62.5 79.0 L 60.0 78.5 L 60.5 77.0 L 58.0 76.5 L 57.5 75.0 L 56.0 75.5 L 55.5 73.0 L 54.0 72.5 L 56.5 71.0 Z"/>
    <path desc="l 0 p 31" fill="rgb(170,176,103)" stroke="rgb(170,176,103)" stroke-width="1" opacity="1.0"
          d="M 3.5 72.0 L 4.5 74.0 L 3.5 72.0 Z"/>
    <path desc="l 0 p 32" fill="rgb(170,176,103)" stroke="rgb(170,176,103)" stroke-width="1" opacity="1.0"
          d="M 57.5 72.0 L 58.5 74.0 L 57.5 72.0 Z"/>
    <path desc="l 9 p 7" fill="rgb(206,93,14)" stroke="rgb(206,93,14)" stroke-width="1" opacity="1.0"
          d="M 63.5 72.0 Q 66.3 73.3 64.0 74.5 L 64.5 76.0 L 66.0 75.5 L 68.5 78.0 L 70.0 78.5 L 68.5 81.0 L 65.5 82.0 L 61.0 80.5 L 65.0 78.5 L 62.0 74.5 L 64.0 73.5 L 63.5 72.0 Z"/>
    <path desc="l 14 p 34" fill="rgb(66,86,27)" stroke="rgb(66,86,27)" stroke-width="1" opacity="1.0"
          d="M 76.5 72.0 L 77.5 74.0 L 79.0 73.5 L 77.0 78.5 L 80.0 77.5 L 78.0 80.5 L 81.5 83.0 L 83.0 82.5 L 76.5 88.0 L 74.0 87.5 L 76.0 84.5 L 74.5 84.0 L 72.0 85.5 L 77.0 81.5 L 76.5 72.0 Z"/>
    <path desc="l 8 p 7" fill="rgb(60,169,238)" stroke="rgb(60,169,238)" stroke-width="1" opacity="1.0"
          d="M 97.5 72.0 L 95.5 75.0 L 93.5 76.0 L 95.5 73.0 L 97.5 72.0 Z"/>
    <path desc="l 5 p 6" fill="rgb(235,245,182)" stroke="rgb(235,245,182)" stroke-width="1" opacity="1.0"
          d="M 98.5 72.0 L 99.0 73.5 L 97.5 74.0 L 98.5 72.0 Z"/>
    <path desc="l 14 p 35" fill="rgb(66,86,27)" stroke="rgb(66,86,27)" stroke-width="1" opacity="1.0"
          d="M 109.5 72.0 L 107.5 75.0 L 105.5 76.0 L 106.5 74.0 L 109.5 72.0 Z"/>
    <path desc="l 1 p 41" fill="rgb(115,141,66)" stroke="rgb(115,141,66)" stroke-width="1" opacity="1.0"
          d="M 139.5 72.0 L 142.0 72.5 L 145.0 73.5 L 144.5 75.0 L 141.5 76.0 L 139.5 72.0 Z"/>
    <path desc="l 0 p 33" fill="rgb(170,176,103)" stroke="rgb(170,176,103)" stroke-width="1" opacity="1.0"
          d="M 125.5 73.0 L 126.5 75.0 L 125.5 73.0 Z"/>
    <path desc="l 14 p 36" fill="rgb(66,86,27)" stroke="rgb(66,86,27)" stroke-width="1" opacity="1.0"
          d="M 65.5 74.0 L 68.5 75.0 L 70.0 75.5 L 69.5 78.0 L 65.5 74.0 Z"/>
    <path desc="l 1 p 42" fill="rgb(115,141,66)" stroke="rgb(115,141,66)" stroke-width="1" opacity="1.0"
          d="M 79.5 74.0 L 80.5 76.0 L 79.0 75.5 L 79.5 74.0 Z"/>
    <path desc="l 14 p 37" fill="rgb(66,86,27)" stroke="rgb(66,86,27)" stroke-width="1" opacity="1.0"
          d="M 80.5 74.0 L 92.0 75.5 L 86.5 80.0 L 82.0 76.5 L 81.5 75.0 L 80.5 74.0 Z"/>
    <path desc="l 1 p 43" fill="rgb(115,141,66)" stroke="rgb(115,141,66)" stroke-width="1" opacity="1.0"
          d="M 100.5 74.0 L 100.0 75.5 L 98.5 78.0 L 99.0 76.5 L 100.5 74.0 Z"/>
    <path desc="l 12 p 22" fill="rgb(23,33,44)" stroke="rgb(23,33,44)" stroke-width="1" opacity="1.0"
          d="M 145.5 74.0 L 147.0 74.5 L 146.0 77.5 L 146.5 79.0 L 143.0 79.5 L 143.5 81.0 L 141.0 79.5 L 139.5 82.0 L 136.0 80.5 L 136.5 79.0 Q 138.0 81.5 139.5 78.0 L 144.0 76.5 L 145.5 74.0 Z"/>
    <path desc="l 12 p 23" fill="rgb(23,33,44)" stroke="rgb(23,33,44)" stroke-width="1" opacity="1.0"
          d="M 149.5 74.0 L 151.0 74.5 L 149.0 75.5 L 149.5 74.0 Z"/>
    <path desc="l 0 p 34" fill="rgb(170,176,103)" stroke="rgb(170,176,103)" stroke-width="1" opacity="1.0"
          d="M 7.5 75.0 L 9.5 78.0 L 7.5 75.0 Z"/>
    <path desc="l 0 p 35" fill="rgb(170,176,103)" stroke="rgb(170,176,103)" stroke-width="1" opacity="1.0"
          d="M 43.5 75.0 L 48.0 78.5 L 46.5 78.0 L 43.5 75.0 Z"/>
    <path desc="l 0 p 36" fill="rgb(170,176,103)" stroke="rgb(170,176,103)" stroke-width="1" opacity="1.0"
          d="M 61.5 75.0 L 63.5 78.0 L 61.5 75.0 Z"/>
    <path desc="l 1 p 44" fill="rgb(115,141,66)" stroke="rgb(115,141,66)" stroke-width="1" opacity="1.0"
          d="M 74.5 75.0 Q 77.0 76.0 76.0 80.5 Q 74.0 78.8 72.0 82.5 L 72.0 84.5 L 71.5 86.0 L 71.0 82.5 L 72.0 80.5 L 71.0 78.5 L 74.5 75.0 Z"/>
    <path desc="l 9 p 8" fill="rgb(206,93,14)" stroke="rgb(206,93,14)" stroke-width="1" opacity="1.0"
          d="M 78.5 75.0 Q 81.5 76.5 78.5 78.0 L 77.0 77.5 L 78.5 75.0 Z"/>
    <path desc="l 5 p 7" fill="rgb(235,245,182)" stroke="rgb(235,245,182)" stroke-width="1" opacity="1.0"
          d="M 94.5 75.0 L 93.5 77.0 L 94.5 75.0 Z"/>
    <path desc="l 0 p 37" fill="rgb(170,176,103)" stroke="rgb(170,176,103)" stroke-width="1" opacity="1.0"
          d="M 128.5 75.0 L 129.5 77.0 L 128.5 75.0 Z"/>
    <path desc="l 12 p 24" fill="rgb(23,33,44)" stroke="rgb(23,33,44)" stroke-width="1" opacity="1.0"
          d="M 134.5 75.0 L 136.0 77.5 L 134.0 76.5 L 134.5 75.0 Z"/>
    <path desc="l 14 p 38" fill="rgb(66,86,27)" stroke="rgb(66,86,27)" stroke-width="1" opacity="1.0"
          d="M 0.5 76.0 L 4.0 78.5 L 3.5 80.0 L 6.5 81.0 L 13.0 85.5 L 14.5 89.0 L 16.0 88.5 L 16.5 90.0 L 20.0 91.5 L 20.5 93.0 L 22.5 92.0 L 24.5 96.0 L 26.0 96.5 L 26.5 98.0 Q 27.8 95.8 29.0 98.5 L 28.5 100.0 L 38.5 107.0 Q 39.9 111.1 45.0 111.5 Q 42.3 113.3 46.5 115.0 L 48.0 115.5 L 49.5 118.0 L 52.0 119.5 L 42.5 120.0 L 0.0 82.5 L 0.5 76.0 Z"/>
    <path desc="l 8 p 8" fill="rgb(60,169,238)" stroke="rgb(60,169,238)" stroke-width="1" opacity="1.0"
          d="M 91.5 76.0 L 92.0 77.5 L 88.5 80.0 L 91.5 76.0 Z"/>
    <path desc="l 4 p 11" fill="rgb(229,240,102)" stroke="rgb(229,240,102)" stroke-width="1" opacity="1.0"
          d="M 114.5 76.0 L 120.0 77.5 L 121.0 79.5 L 118.5 78.0 L 116.5 77.0 L 115.5 80.0 L 112.5 78.0 L 110.5 79.0 L 110.0 77.5 L 112.5 77.0 L 114.0 77.5 L 114.5 76.0 Z"/>
    <path desc="l 9 p 9" fill="rgb(206,93,14)" stroke="rgb(206,93,14)" stroke-width="1" opacity="1.0"
          d="M 147.5 76.0 L 150.0 76.5 L 148.5 79.0 L 147.0 78.5 L 147.5 76.0 Z"/>
    <path desc="l 9 p 10" fill="rgb(206,93,14)" stroke="rgb(206,93,14)" stroke-width="1" opacity="1.0"
          d="M 48.5 77.0 Q 52.3 76.3 53.0 78.5 L 53.5 80.0 Q 55.0 76.5 56.5 79.0 L 58.0 79.5 L 58.5 81.0 L 64.0 82.5 L 60.5 87.0 L 61.0 85.5 L 59.5 82.0 L 57.5 82.0 L 50.0 80.5 L 50.5 79.0 L 48.0 78.5 L 48.5 77.0 Z"/>
    <path desc="l 1 p 45" fill="rgb(115,141,66)" stroke="rgb(115,141,66)" stroke-width="1" opacity="1.0"
          d="M 68.5 77.0 L 67.5 79.0 L 68.5 77.0 Z"/>
    <path desc="l 1 p 46" fill="rgb(115,141,66)" stroke="rgb(115,141,66)" stroke-width="1" opacity="1.0"
          d="M 80.5 77.0 L 83.5 79.0 Q 84.8 76.8 86.0 79.5 L 84.0 79.5 L 83.5 82.0 L 80.0 83.5 L 80.5 85.0 L 77.0 82.5 L 79.0 81.5 L 78.0 79.5 L 80.5 77.0 Z"/>
    <path desc="l 8 p 9" fill="rgb(60,169,238)" stroke="rgb(60,169,238)" stroke-width="1" opacity="1.0"
          d="M 99.5 77.0 L 98.5 79.0 L 99.5 77.0 Z"/>
    <path desc="l 2 p 11" fill="rgb(196,216,100)" stroke="rgb(196,216,100)" stroke-width="1" opacity="1.0"
          d="M 116.5 77.0 L 118.5 80.0 L 120.0 79.5 L 117.0 80.5 L 116.5 82.0 L 114.5 83.0 L 112.5 82.0 L 110.5 83.0 L 107.5 82.0 L 106.0 82.5 L 106.5 84.0 L 104.5 85.0 L 103.0 84.5 L 101.0 85.5 L 101.5 84.0 L 100.0 84.5 L 99.5 86.0 L 89.5 91.0 L 87.0 89.5 L 86.5 87.0 L 84.0 88.5 L 85.0 90.5 L 84.0 90.5 L 83.5 89.0 L 82.0 89.5 L 88.5 85.0 L 88.0 86.5 L 88.5 89.0 L 91.0 87.5 L 90.0 84.5 L 96.5 82.0 Q 98.0 84.5 99.5 81.0 L 105.5 80.0 L 112.5 78.0 L 116.5 80.0 L 117.0 78.5 L 116.5 77.0 Z"/>
    <path desc="l 0 p 38" fill="rgb(170,176,103)" stroke="rgb(170,176,103)" stroke-width="1" opacity="1.0"
          d="M 131.5 77.0 L 132.5 79.0 L 131.5 77.0 Z"/>
    <path desc="l 1 p 47" fill="rgb(115,141,66)" stroke="rgb(115,141,66)" stroke-width="1" opacity="1.0"
          d="M 150.5 77.0 L 155.0 80.5 L 155.5 82.0 Q 157.0 79.5 158.5 83.0 L 160.0 83.5 Q 161.3 88.3 159.0 89.5 L 159.5 91.0 L 156.0 88.5 L 157.0 86.5 L 154.0 87.5 Q 156.8 85.8 152.5 84.0 L 151.0 84.5 L 152.5 87.0 L 149.5 82.0 Q 146.3 80.3 150.0 78.5 L 150.5 77.0 Z"/>
    <path desc="l 0 p 39" fill="rgb(170,176,103)" stroke="rgb(170,176,103)" stroke-width="1" opacity="1.0"
          d="M 11.5 78.0 L 14.5 82.0 L 11.5 78.0 Z"/>
    <path desc="l 12 p 25" fill="rgb(23,33,44)" stroke="rgb(23,33,44)" stroke-width="1" opacity="1.0"
          d="M 77.5 78.0 L 77.0 79.5 L 76.5 82.0 L 75.0 81.5 L 77.5 78.0 Z"/>
    <path desc="l 13 p 6" fill="rgb(27,108,205)" stroke="rgb(27,108,205)" stroke-width="1" opacity="1.0"
          d="M 88.5 78.0 L 87.5 80.0 L 88.5 78.0 Z"/>
    <path desc="l 14 p 39" fill="rgb(66,86,27)" stroke="rgb(66,86,27)" stroke-width="1" opacity="1.0"
          d="M 102.5 78.0 L 105.0 78.5 L 102.5 79.0 L 102.5 78.0 Z"/>
    <path desc="l 15 p 16" fill="rgb(200,210,18)" stroke="rgb(200,210,18)" stroke-width="1" opacity="1.0"
          d="M 105.5 78.0 L 110.0 78.5 L 107.0 79.5 L 104.5 80.0 L 102.0 79.5 L 105.5 78.0 Z"/>
    <path desc="l 4 p 12" fill="rgb(229,240,102)" stroke="rgb(229,240,102)" stroke-width="1" opacity="1.0"
          d="M 106.5 78.0 L 109.0 78.5 L 107.0 79.5 L 105.0 79.5 L 106.5 78.0 Z"/>
    <path desc="l 6 p 7" fill="rgb(217,208,136)" stroke="rgb(217,208,136)" stroke-width="1" opacity="1.0"
          d="M 115.5 78.0 L 117.0 78.5 L 116.5 80.0 L 115.5 78.0 Z"/>
    <path desc="l 14 p 40" fill="rgb(66,86,27)" stroke="rgb(66,86,27)" stroke-width="1" opacity="1.0"
          d="M 48.5 79.0 L 49.5 81.0 L 48.5 79.0 Z"/>
    <path desc="l 6 p 8" fill="rgb(217,208,136)" stroke="rgb(217,208,136)" stroke-width="1" opacity="1.0"
          d="M 90.5 79.0 L 88.5 82.0 L 81.5 86.0 L 81.5 85.0 L 90.5 79.0 Z"/>
    <path desc="l 0 p 40" fill="rgb(170,176,103)" stroke="rgb(170,176,103)" stroke-width="1" opacity="1.0"
          d="M 59.5 80.0 L 62.0 81.5 L 60.5 82.0 L 59.5 80.0 Z"/>
    <path desc="l 1 p 48" fill="rgb(115,141,66)" stroke="rgb(115,141,66)" stroke-width="1" opacity="1.0"
          d="M 69.5 80.0 L 69.5 83.0 L 67.0 81.5 L 69.5 80.0 Z"/>
    <path desc="l 0 p 41" fill="rgb(170,176,103)" stroke="rgb(170,176,103)" stroke-width="1" opacity="1.0"
          d="M 74.5 80.0 L 75.0 81.5 L 73.5 82.0 L 74.5 80.0 Z"/>
    <path desc="l 13 p 7" fill="rgb(27,108,205)" stroke="rgb(27,108,205)" stroke-width="1" opacity="1.0"
          d="M 85.5 80.0 L 84.5 82.0 L 85.5 80.0 Z"/>
    <path desc="l 4 p 13" fill="rgb(229,240,102)" stroke="rgb(229,240,102)" stroke-width="1" opacity="1.0"
          d="M 99.5 80.0 L 103.0 80.5 Q 97.9 80.4 96.5 84.0 L 93.0 82.5 L 99.5 80.0 Z"/>
    <path desc="l 3 p 8" fill="rgb(183,200,114)" stroke="rgb(183,200,114)" stroke-width="1" opacity="1.0"
          d="M 117.5 80.0 L 120.0 80.5 Q 117.9 83.8 117.5 80.0 Z"/>
    <path desc="l 0 p 42" fill="rgb(170,176,103)" stroke="rgb(170,176,103)" stroke-width="1" opacity="1.0"
          d="M 50.5 81.0 L 51.5 83.0 L 50.5 81.0 Z"/>
    <path desc="l 14 p 41" fill="rgb(66,86,27)" stroke="rgb(66,86,27)" stroke-width="1" opacity="1.0"
          d="M 53.5 81.0 L 57.0 82.5 L 57.5 84.0 Q 59.3 81.3 61.0 85.5 L 58.5 87.0 L 53.0 82.5 L 53.5 81.0 Z"/>
    <path desc="l 0 p 43" fill="rgb(170,176,103)" stroke="rgb(170,176,103)" stroke-width="1" opacity="1.0"
          d="M 64.5 81.0 L 65.5 83.0 L 64.0 82.5 L 64.5 81.0 Z"/>
    <path desc="l 4 p 14" fill="rgb(229,240,102)" stroke="rgb(229,240,102)" stroke-width="1" opacity="1.0"
          d="M 86.5 81.0 L 87.5 83.0 L 86.5 81.0 Z"/>
    <path desc="l 1 p 49" fill="rgb(115,141,66)" stroke="rgb(115,141,66)" stroke-width="1" opacity="1.0"
          d="M 145.5 81.0 L 149.0 83.5 L 147.5 83.0 L 145.5 81.0 Z"/>
    <path desc="l 5 p 8" fill="rgb(235,245,182)" stroke="rgb(235,245,182)" stroke-width="1" opacity="1.0"
          d="M 84.5 82.0 L 83.5 84.0 L 81.5 85.0 L 82.5 83.0 L 84.5 82.0 Z"/>
    <path desc="l 1 p 50" fill="rgb(115,141,66)" stroke="rgb(115,141,66)" stroke-width="1" opacity="1.0"
          d="M 88.5 82.0 L 89.5 84.0 L 88.5 82.0 Z"/>
    <path desc="l 15 p 17" fill="rgb(200,210,18)" stroke="rgb(200,210,18)" stroke-width="1" opacity="1.0"
          d="M 106.5 82.0 L 108.5 83.0 L 110.5 83.0 L 113.5 82.0 L 112.5 84.0 L 90.5 92.0 L 90.0 90.5 L 92.0 90.5 L 92.5 89.0 L 100.5 85.0 L 102.5 86.0 L 105.5 84.0 L 107.0 84.5 L 106.5 82.0 Z"/>
    <path desc="l 0 p 44" fill="rgb(170,176,103)" stroke="rgb(170,176,103)" stroke-width="1" opacity="1.0"
          d="M 118.5 82.0 L 117.5 84.0 L 118.5 82.0 Z"/>
    <path desc="l 0 p 45" fill="rgb(170,176,103)" stroke="rgb(170,176,103)" stroke-width="1" opacity="1.0"
          d="M 138.5 82.0 L 144.0 85.5 L 142.5 86.0 L 138.5 82.0 Z"/>
    <path desc="l 1 p 51" fill="rgb(115,141,66)" stroke="rgb(115,141,66)" stroke-width="1" opacity="1.0"
          d="M 0.5 83.0 L 42.0 119.5 L 37.5 120.0 L 34.0 117.5 L 33.5 116.0 L 27.0 111.5 L 26.5 110.0 L 23.0 107.5 L 22.5 106.0 L 21.0 105.5 L 20.5 103.0 L 16.0 101.5 L 15.5 99.0 L 12.0 98.5 L 14.0 97.5 L 11.5 96.0 L 10.0 96.5 Q 12.3 95.3 9.5 94.0 L 8.0 93.5 L 7.5 92.0 Q 6.3 94.3 5.0 91.5 L 4.5 90.0 L 2.0 88.5 L 1.5 87.0 L 0.0 87.5 L 0.5 83.0 Z"/>
    <path desc="l 0 p 46" fill="rgb(170,176,103)" stroke="rgb(170,176,103)" stroke-width="1" opacity="1.0"
          d="M 17.5 83.0 L 19.5 86.0 L 17.5 83.0 Z"/>
    <path desc="l 0 p 47" fill="rgb(170,176,103)" stroke="rgb(170,176,103)" stroke-width="1" opacity="1.0"
          d="M 53.5 83.0 L 57.5 88.0 L 53.5 83.0 Z"/>
    <path desc="l 12 p 26" fill="rgb(23,33,44)" stroke="rgb(23,33,44)" stroke-width="1" opacity="1.0"
          d="M 59.5 83.0 L 60.5 85.0 L 59.5 83.0 Z"/>
    <path desc="l 2 p 12" fill="rgb(196,216,100)" stroke="rgb(196,216,100)" stroke-width="1" opacity="1.0"
          d="M 64.5 83.0 L 67.0 84.5 L 65.5 85.0 L 63.0 84.5 L 64.5 83.0 Z"/>
    <path desc="l 0 p 48" fill="rgb(170,176,103)" stroke="rgb(170,176,103)" stroke-width="1" opacity="1.0"
          d="M 68.5 83.0 L 67.5 85.0 L 68.5 83.0 Z"/>
    <path desc="l 2 p 13" fill="rgb(196,216,100)" stroke="rgb(196,216,100)" stroke-width="1" opacity="1.0"
          d="M 85.5 83.0 L 87.0 83.5 L 80.0 87.5 L 80.5 89.0 Q 77.5 87.5 80.5 86.0 L 83.0 85.5 L 82.5 84.0 Q 84.0 86.5 85.5 83.0 Z"/>
    <path desc="l 4 p 15" fill="rgb(229,240,102)" stroke="rgb(229,240,102)" stroke-width="1" opacity="1.0"
          d="M 90.5 83.0 L 92.0 83.5 L 89.5 85.0 L 90.5 83.0 Z"/>
    <path desc="l 14 p 42" fill="rgb(66,86,27)" stroke="rgb(66,86,27)" stroke-width="1" opacity="1.0"
          d="M 118.5 83.0 L 119.5 85.0 L 121.0 84.5 L 120.5 83.0 L 123.5 88.0 L 127.0 89.5 L 127.5 91.0 L 134.5 95.0 Q 135.8 92.8 137.0 95.5 Q 134.8 96.8 137.5 98.0 L 143.5 102.0 L 145.0 101.5 L 144.5 103.0 L 146.5 102.0 L 147.5 104.0 L 151.5 109.0 L 156.5 112.0 L 158.0 111.5 L 157.5 113.0 L 160.0 114.5 L 159.5 118.0 L 156.5 116.0 L 158.5 120.0 L 150.0 112.5 L 150.0 110.5 L 147.5 108.0 L 142.5 105.0 L 143.5 108.0 L 139.5 102.0 L 138.0 102.5 L 139.5 105.0 L 136.0 102.5 L 138.0 101.5 L 134.5 99.0 L 134.5 101.0 L 133.0 97.5 L 132.5 96.0 L 126.5 93.0 L 127.5 96.0 L 123.5 90.0 L 120.0 87.5 L 118.5 83.0 Z"/>
    <path desc="l 4 p 16" fill="rgb(229,240,102)" stroke="rgb(229,240,102)" stroke-width="1" opacity="1.0"
          d="M 64.5 84.0 L 63.5 86.0 L 64.5 84.0 Z"/>
    <path desc="l 12 p 27" fill="rgb(23,33,44)" stroke="rgb(23,33,44)" stroke-width="1" opacity="1.0"
          d="M 74.5 84.0 L 76.0 84.5 Q 74.7 88.7 68.5 88.0 Q 63.9 87.4 62.5 90.0 L 64.5 87.0 L 69.5 86.0 Q 73.8 86.8 74.5 84.0 Z"/>
    <path desc="l 3 p 9" fill="rgb(183,200,114)" stroke="rgb(183,200,114)" stroke-width="1" opacity="1.0"
          d="M 97.5 84.0 L 96.5 86.0 L 97.5 84.0 Z"/>
    <path desc="l 3 p 10" fill="rgb(183,200,114)" stroke="rgb(183,200,114)" stroke-width="1" opacity="1.0"
          d="M 103.5 84.0 L 102.5 86.0 L 103.5 84.0 Z"/>
    <path desc="l 0 p 49" fill="rgb(170,176,103)" stroke="rgb(170,176,103)" stroke-width="1" opacity="1.0"
          d="M 113.5 84.0 L 114.5 86.0 L 113.5 84.0 Z"/>
    <path desc="l 3 p 11" fill="rgb(183,200,114)" stroke="rgb(183,200,114)" stroke-width="1" opacity="1.0"
          d="M 115.5 84.0 L 117.0 84.5 L 116.5 86.0 L 115.5 84.0 Z"/>
    <path desc="l 12 p 28" fill="rgb(23,33,44)" stroke="rgb(23,33,44)" stroke-width="1" opacity="1.0"
          d="M 119.5 84.0 L 119.0 87.5 L 114.5 92.0 L 111.5 94.0 L 110.0 93.5 L 109.5 95.0 L 85.5 110.0 L 89.5 105.0 Q 106.8 96.8 119.5 84.0 Z"/>
    <path desc="l 0 p 50" fill="rgb(170,176,103)" stroke="rgb(170,176,103)" stroke-width="1" opacity="1.0"
          d="M 126.5 84.0 L 127.5 86.0 L 126.5 84.0 Z"/>
    <path desc="l 15 p 18" fill="rgb(200,210,18)" stroke="rgb(200,210,18)" stroke-width="1" opacity="1.0"
          d="M 64.5 85.0 L 65.0 86.5 L 59.0 90.5 L 58.5 92.0 L 57.0 91.5 L 57.5 89.0 Q 58.8 91.3 60.0 88.5 L 59.5 87.0 L 64.5 85.0 Z"/>
    <path desc="l 15 p 19" fill="rgb(200,210,18)" stroke="rgb(200,210,18)" stroke-width="1" opacity="1.0"
          d="M 67.5 85.0 L 70.0 85.5 L 67.5 86.0 L 67.5 85.0 Z"/>
    <path desc="l 4 p 17" fill="rgb(229,240,102)" stroke="rgb(229,240,102)" stroke-width="1" opacity="1.0"
          d="M 80.5 85.0 L 77.5 89.0 L 77.0 87.5 L 80.5 85.0 Z"/>
    <path desc="l 4 p 18" fill="rgb(229,240,102)" stroke="rgb(229,240,102)" stroke-width="1" opacity="1.0"
          d="M 86.5 85.0 L 88.0 85.5 L 85.5 87.0 L 86.5 85.0 Z"/>
    <path desc="l 14 p 43" fill="rgb(66,86,27)" stroke="rgb(66,86,27)" stroke-width="1" opacity="1.0"
          d="M 108.5 85.0 L 110.0 85.5 L 108.5 88.0 L 108.5 85.0 Z"/>
    <path desc="l 12 p 29" fill="rgb(23,33,44)" stroke="rgb(23,33,44)" stroke-width="1" opacity="1.0"
          d="M 110.5 85.0 L 109.5 87.0 L 110.5 85.0 Z"/>
    <path desc="l 5 p 9" fill="rgb(235,245,182)" stroke="rgb(235,245,182)" stroke-width="1" opacity="1.0"
          d="M 112.5 85.0 L 109.5 89.0 L 112.5 85.0 Z"/>
    <path desc="l 2 p 14" fill="rgb(196,216,100)" stroke="rgb(196,216,100)" stroke-width="1" opacity="1.0"
          d="M 115.5 85.0 L 114.5 87.0 L 111.5 89.0 L 113.5 86.0 L 115.5 85.0 Z"/>
    <path desc="l 0 p 51" fill="rgb(170,176,103)" stroke="rgb(170,176,103)" stroke-width="1" opacity="1.0"
          d="M 74.5 86.0 L 75.5 88.0 L 74.5 86.0 Z"/>
    <path desc="l 13 p 8" fill="rgb(27,108,205)" stroke="rgb(27,108,205)" stroke-width="1" opacity="1.0"
          d="M 83.5 86.0 L 82.5 88.0 L 83.5 86.0 Z"/>
    <path desc="l 12 p 30" fill="rgb(23,33,44)" stroke="rgb(23,33,44)" stroke-width="1" opacity="1.0"
          d="M 107.5 86.0 L 108.0 87.5 Q 103.9 92.9 96.5 95.0 L 95.5 93.0 L 94.0 93.5 L 93.5 95.0 L 88.0 94.5 L 95.5 92.0 L 97.0 92.5 L 97.5 91.0 L 107.5 86.0 Z"/>
    <path desc="l 1 p 52" fill="rgb(115,141,66)" stroke="rgb(115,141,66)" stroke-width="1" opacity="1.0"
          d="M 115.5 86.0 L 114.5 88.0 L 115.5 86.0 Z"/>
    <path desc="l 0 p 52" fill="rgb(170,176,103)" stroke="rgb(170,176,103)" stroke-width="1" opacity="1.0"
          d="M 129.5 86.0 L 130.5 88.0 L 129.5 86.0 Z"/>
    <path desc="l 14 p 44" fill="rgb(66,86,27)" stroke="rgb(66,86,27)" stroke-width="1" opacity="1.0"
          d="M 1.5 87.0 L 3.5 90.0 L 5.0 90.5 L 5.5 92.0 Q 6.8 89.8 8.0 92.5 L 8.5 94.0 L 14.0 97.5 L 12.0 98.5 L 16.0 99.5 L 16.5 102.0 L 21.0 103.5 L 21.5 106.0 L 23.0 106.5 L 25.5 110.0 L 27.0 110.5 L 28.5 113.0 L 34.0 116.5 L 35.5 119.0 L 37.0 119.5 L 23.5 120.0 L 0.0 98.5 L 0.0 91.5 Q -0.7 87.8 1.5 87.0 Z"/>
    <path desc="l 0 p 53" fill="rgb(170,176,103)" stroke="rgb(170,176,103)" stroke-width="1" opacity="1.0"
          d="M 22.5 87.0 L 24.5 90.0 L 22.5 87.0 Z"/>
    <path desc="l 9 p 11" fill="rgb(206,93,14)" stroke="rgb(206,93,14)" stroke-width="1" opacity="1.0"
          d="M 58.5 87.0 L 59.5 89.0 L 59.5 91.0 Q 58.0 87.5 56.5 90.0 L 55.0 90.5 L 55.5 92.0 L 58.0 92.5 L 55.5 93.0 Q 50.5 90.5 55.5 88.0 L 58.5 87.0 Z"/>
    <path desc="l 1 p 53" fill="rgb(115,141,66)" stroke="rgb(115,141,66)" stroke-width="1" opacity="1.0"
          d="M 73.5 87.0 L 77.0 88.5 L 78.0 92.5 L 77.5 94.0 L 79.0 94.5 L 77.5 95.0 L 73.0 92.5 L 73.5 91.0 L 72.0 90.5 L 71.0 88.5 L 73.5 87.0 Z"/>
    <path desc="l 6 p 9" fill="rgb(217,208,136)" stroke="rgb(217,208,136)" stroke-width="1" opacity="1.0"
          d="M 80.5 87.0 L 83.0 88.5 L 81.5 89.0 L 80.5 87.0 Z"/>
    <path desc="l 0 p 54" fill="rgb(170,176,103)" stroke="rgb(170,176,103)" stroke-width="1" opacity="1.0"
          d="M 89.5 87.0 L 88.5 89.0 L 89.5 87.0 Z"/>
    <path desc="l 0 p 55" fill="rgb(170,176,103)" stroke="rgb(170,176,103)" stroke-width="1" opacity="1.0"
          d="M 145.5 87.0 L 155.0 93.5 L 152.5 92.0 L 148.0 89.5 L 145.5 87.0 Z"/>
    <path desc="l 14 p 45" fill="rgb(66,86,27)" stroke="rgb(66,86,27)" stroke-width="1" opacity="1.0"
          d="M 65.5 88.0 Q 70.8 86.8 72.0 89.5 L 72.5 91.0 L 74.0 91.5 L 73.5 93.0 L 75.5 92.0 L 75.5 94.0 L 78.5 93.0 Q 80.3 95.8 86.5 94.0 Q 88.2 91.2 93.5 92.0 L 95.5 93.0 L 96.0 91.5 L 95.5 90.0 L 97.5 90.0 L 99.5 89.0 L 98.5 91.0 L 97.0 91.5 L 96.0 94.5 L 97.5 95.0 L 99.0 94.5 Q 96.7 97.7 91.0 97.5 L 91.5 99.0 L 89.5 100.0 L 90.0 98.5 L 89.5 96.0 L 77.5 94.0 Q 79.1 95.8 76.0 97.5 Q 72.0 99.5 76.0 101.5 L 75.5 103.0 L 69.5 96.0 L 61.0 89.5 L 63.5 89.0 L 65.5 88.0 Z"/>
    <path desc="l 3 p 12" fill="rgb(183,200,114)" stroke="rgb(183,200,114)" stroke-width="1" opacity="1.0"
          d="M 79.5 88.0 L 84.0 90.5 L 83.5 93.0 L 82.5 91.0 L 81.0 91.5 L 80.5 90.0 L 78.5 91.0 L 78.0 89.5 L 79.5 88.0 Z"/>
    <path desc="l 14 p 46" fill="rgb(66,86,27)" stroke="rgb(66,86,27)" stroke-width="1" opacity="1.0"
          d="M 113.5 88.0 L 112.5 90.0 L 113.5 88.0 Z"/>
    <path desc="l 14 p 47" fill="rgb(66,86,27)" stroke="rgb(66,86,27)" stroke-width="1" opacity="1.0"
          d="M 118.5 88.0 L 119.5 90.0 L 117.0 89.5 L 118.5 88.0 Z"/>
    <path desc="l 0 p 56" fill="rgb(170,176,103)" stroke="rgb(170,176,103)" stroke-width="1" opacity="1.0"
          d="M 132.5 88.0 L 133.5 90.0 L 132.5 88.0 Z"/>
    <path desc="l 15 p 20" fill="rgb(200,210,18)" stroke="rgb(200,210,18)" stroke-width="1" opacity="1.0"
          d="M 77.5 89.0 L 80.0 93.5 L 77.0 91.5 L 77.5 89.0 Z"/>
    <path desc="l 6 p 10" fill="rgb(217,208,136)" stroke="rgb(217,208,136)" stroke-width="1" opacity="1.0"
          d="M 86.5 89.0 L 85.5 91.0 L 86.5 89.0 Z"/>
    <path desc="l 1 p 54" fill="rgb(115,141,66)" stroke="rgb(115,141,66)" stroke-width="1" opacity="1.0"
          d="M 96.5 89.0 L 99.0 89.5 Q 97.6 92.6 92.5 92.0 L 91.5 90.0 L 95.5 91.0 L 96.5 89.0 Z"/>
    <path desc="l 14 p 48" fill="rgb(66,86,27)" stroke="rgb(66,86,27)" stroke-width="1" opacity="1.0"
          d="M 105.5 89.0 L 104.5 91.0 L 105.5 89.0 Z"/>
    <path desc="l 5 p 10" fill="rgb(235,245,182)" stroke="rgb(235,245,182)" stroke-width="1" opacity="1.0"
          d="M 107.5 89.0 L 106.5 91.0 L 102.5 94.0 L 105.5 90.0 L 107.5 89.0 Z"/>
    <path desc="l 0 p 57" fill="rgb(170,176,103)" stroke="rgb(170,176,103)" stroke-width="1" opacity="1.0"
          d="M 108.5 89.0 L 109.5 91.0 L 107.0 90.5 L 108.5 89.0 Z"/>
    <path desc="l 1 p 55" fill="rgb(115,141,66)" stroke="rgb(115,141,66)" stroke-width="1" opacity="1.0"
          d="M 111.5 89.0 L 110.5 91.0 L 111.5 89.0 Z"/>
    <path desc="l 7 p 11" fill="rgb(171,201,188)" stroke="rgb(171,201,188)" stroke-width="1" opacity="1.0"
          d="M 121.5 89.0 L 122.5 91.0 L 121.5 89.0 Z"/>
    <path desc="l 0 p 58" fill="rgb(170,176,103)" stroke="rgb(170,176,103)" stroke-width="1" opacity="1.0"
          d="M 55.5 90.0 L 57.0 90.5 L 55.0 91.5 L 55.5 90.0 Z"/>
    <path desc="l 12 p 31" fill="rgb(23,33,44)" stroke="rgb(23,33,44)" stroke-width="1" opacity="1.0"
          d="M 60.5 90.0 L 57.5 94.0 L 56.0 93.5 L 60.5 90.0 Z"/>
    <path desc="l 1 p 56" fill="rgb(115,141,66)" stroke="rgb(115,141,66)" stroke-width="1" opacity="1.0"
          d="M 60.5 91.0 L 65.5 95.0 Q 66.8 92.8 68.0 95.5 Q 65.8 96.8 68.5 98.0 L 74.0 102.5 Q 68.0 102.0 65.5 105.0 L 61.0 101.5 L 57.5 96.0 L 56.0 96.5 L 56.5 95.0 L 55.0 94.5 L 60.5 91.0 Z"/>
    <path desc="l 0 p 59" fill="rgb(170,176,103)" stroke="rgb(170,176,103)" stroke-width="1" opacity="1.0"
          d="M 62.5 91.0 L 63.5 93.0 L 62.5 91.0 Z"/>
    <path desc="l 1 p 57" fill="rgb(115,141,66)" stroke="rgb(115,141,66)" stroke-width="1" opacity="1.0"
          d="M 70.5 91.0 L 71.5 93.0 L 70.5 91.0 Z"/>
    <path desc="l 0 p 60" fill="rgb(170,176,103)" stroke="rgb(170,176,103)" stroke-width="1" opacity="1.0"
          d="M 78.5 91.0 L 81.5 92.0 L 83.0 91.5 L 82.5 93.0 L 80.5 94.0 L 78.5 91.0 Z"/>
    <path desc="l 15 p 21" fill="rgb(200,210,18)" stroke="rgb(200,210,18)" stroke-width="1" opacity="1.0"
          d="M 86.5 91.0 L 89.0 91.5 L 86.5 93.0 L 86.5 91.0 Z"/>
    <path desc="l 1 p 58" fill="rgb(115,141,66)" stroke="rgb(115,141,66)" stroke-width="1" opacity="1.0"
          d="M 89.5 91.0 L 88.5 93.0 L 89.5 91.0 Z"/>
    <path desc="l 8 p 10" fill="rgb(60,169,238)" stroke="rgb(60,169,238)" stroke-width="1" opacity="1.0"
          d="M 103.5 91.0 L 102.5 93.0 L 103.5 91.0 Z"/>
    <path desc="l 3 p 13" fill="rgb(183,200,114)" stroke="rgb(183,200,114)" stroke-width="1" opacity="1.0"
          d="M 106.5 91.0 L 109.0 91.5 L 106.5 92.0 L 106.5 91.0 Z"/>
    <path desc="l 14 p 49" fill="rgb(66,86,27)" stroke="rgb(66,86,27)" stroke-width="1" opacity="1.0"
          d="M 109.5 91.0 L 107.5 94.0 L 109.5 91.0 Z"/>
    <path desc="l 0 p 61" fill="rgb(170,176,103)" stroke="rgb(170,176,103)" stroke-width="1" opacity="1.0"
          d="M 136.5 91.0 L 137.5 93.0 L 136.5 91.0 Z"/>
    <path desc="l 0 p 62" fill="rgb(170,176,103)" stroke="rgb(170,176,103)" stroke-width="1" opacity="1.0"
          d="M 105.5 92.0 L 107.0 92.5 L 105.5 95.0 L 104.0 94.5 L 105.5 92.0 Z"/>
    <path desc="l 14 p 50" fill="rgb(66,86,27)" stroke="rgb(66,86,27)" stroke-width="1" opacity="1.0"
          d="M 113.5 92.0 L 114.5 94.0 L 112.0 93.5 L 113.5 92.0 Z"/>
    <path desc="l 7 p 12" fill="rgb(171,201,188)" stroke="rgb(171,201,188)" stroke-width="1" opacity="1.0"
          d="M 125.5 92.0 L 126.5 94.0 L 125.5 92.0 Z"/>
    <path desc="l 7 p 13" fill="rgb(171,201,188)" stroke="rgb(171,201,188)" stroke-width="1" opacity="1.0"
          d="M 64.5 93.0 L 65.5 95.0 L 64.5 93.0 Z"/>
    <path desc="l 15 p 22" fill="rgb(200,210,18)" stroke="rgb(200,210,18)" stroke-width="1" opacity="1.0"
          d="M 81.5 93.0 L 85.0 93.5 L 81.5 94.0 L 81.5 93.0 Z"/>
    <path desc="l 13 p 9" fill="rgb(27,108,205)" stroke="rgb(27,108,205)" stroke-width="1" opacity="1.0"
          d="M 100.5 93.0 L 99.5 95.0 L 100.5 93.0 Z"/>
    <path desc="l 14 p 51" fill="rgb(66,86,27)" stroke="rgb(66,86,27)" stroke-width="1" opacity="1.0"
          d="M 110.5 93.0 L 112.5 97.0 L 115.0 98.5 L 115.5 101.0 L 117.5 100.0 L 117.5 101.0 L 116.0 101.5 L 116.5 103.0 L 118.5 103.0 L 121.0 104.5 L 120.0 102.5 L 120.5 100.0 L 125.5 109.0 L 127.0 108.5 L 128.5 111.0 Q 129.8 108.8 131.0 111.5 Q 128.3 113.3 132.5 115.0 L 134.0 114.5 L 133.5 113.0 L 140.0 118.5 L 139.5 120.0 L 138.5 118.0 L 137.0 118.5 L 137.5 120.0 Q 133.8 120.8 133.0 118.5 L 127.5 114.0 L 107.5 98.0 L 106.0 98.5 L 106.5 96.0 L 110.0 94.5 L 110.5 93.0 Z"/>
    <path desc="l 0 p 63" fill="rgb(170,176,103)" stroke="rgb(170,176,103)" stroke-width="1" opacity="1.0"
          d="M 139.5 93.0 L 141.5 96.0 L 139.5 93.0 Z"/>
    <path desc="l 5 p 11" fill="rgb(235,245,182)" stroke="rgb(235,245,182)" stroke-width="1" opacity="1.0"
          d="M 100.5 94.0 L 98.5 97.0 L 97.0 97.5 Q 99.3 98.8 96.5 100.0 L 93.0 98.5 L 100.5 94.0 Z"/>
    <path desc="l 3 p 14" fill="rgb(183,200,114)" stroke="rgb(183,200,114)" stroke-width="1" opacity="1.0"
          d="M 102.5 94.0 L 100.0 97.5 L 99.5 99.0 L 98.0 98.5 L 100.5 95.0 L 102.5 94.0 Z"/>
    <path desc="l 1 p 59" fill="rgb(115,141,66)" stroke="rgb(115,141,66)" stroke-width="1" opacity="1.0"
          d="M 103.5 94.0 L 104.5 96.0 L 103.5 94.0 Z"/>
    <path desc="l 7 p 14" fill="rgb(171,201,188)" stroke="rgb(171,201,188)" stroke-width="1" opacity="1.0"
          d="M 128.5 94.0 L 130.5 97.0 L 128.5 94.0 Z"/>
    <path desc="l 0 p 64" fill="rgb(170,176,103)" stroke="rgb(170,176,103)" stroke-width="1" opacity="1.0"
          d="M 66.5 95.0 L 75.0 102.5 L 73.0 103.5 L 73.0 101.5 L 69.5 98.0 L 66.5 95.0 Z"/>
    <path desc="l 12 p 32" fill="rgb(23,33,44)" stroke="rgb(23,33,44)" stroke-width="1" opacity="1.0"
          d="M 78.5 95.0 Q 86.2 93.8 90.0 96.5 L 89.5 98.0 L 87.5 98.0 L 78.5 99.0 L 76.0 97.5 L 78.5 95.0 Z"/>
    <path desc="l 1 p 60" fill="rgb(115,141,66)" stroke="rgb(115,141,66)" stroke-width="1" opacity="1.0"
          d="M 101.5 96.0 L 100.5 98.0 L 101.5 96.0 Z"/>
    <path desc="l 14 p 52" fill="rgb(66,86,27)" stroke="rgb(66,86,27)" stroke-width="1" opacity="1.0"
          d="M 118.5 96.0 L 119.5 98.0 L 118.5 96.0 Z"/>
    <path desc="l 0 p 65" fill="rgb(170,176,103)" stroke="rgb(170,176,103)" stroke-width="1" opacity="1.0"
          d="M 121.5 96.0 L 123.0 98.5 L 122.0 98.5 L 121.5 96.0 Z"/>
    <path desc="l 2 p 15" fill="rgb(196,216,100)" stroke="rgb(196,216,100)" stroke-width="1" opacity="1.0"
          d="M 97.5 97.0 L 99.0 97.5 L 96.5 99.0 L 97.5 97.0 Z"/>
    <path desc="l 1 p 61" fill="rgb(115,141,66)" stroke="rgb(115,141,66)" stroke-width="1" opacity="1.0"
          d="M 105.5 97.0 L 106.5 99.0 L 108.5 98.0 L 108.5 100.0 L 112.5 103.0 L 114.0 102.5 Q 111.8 103.8 114.5 105.0 L 118.5 108.0 Q 119.8 105.8 121.0 108.5 L 120.0 110.5 L 124.0 112.5 L 124.5 114.0 Q 129.0 113.5 129.5 117.0 Q 130.8 114.8 132.0 117.5 L 131.5 119.0 L 133.0 119.5 L 118.5 120.0 L 116.0 119.5 L 116.5 118.0 L 115.0 117.5 L 114.5 116.0 L 113.0 116.5 L 112.5 115.0 L 109.0 113.5 L 109.5 112.0 L 107.5 113.0 L 105.5 110.0 L 103.0 108.5 L 103.5 107.0 L 100.0 105.5 L 99.0 102.5 L 102.0 100.5 L 102.5 99.0 L 105.5 97.0 Z"/>
    <path desc="l 7 p 15" fill="rgb(171,201,188)" stroke="rgb(171,201,188)" stroke-width="1" opacity="1.0"
          d="M 106.5 97.0 L 107.5 99.0 L 106.5 97.0 Z"/>
    <path desc="l 7 p 16" fill="rgb(171,201,188)" stroke="rgb(171,201,188)" stroke-width="1" opacity="1.0"
          d="M 132.5 97.0 L 133.5 99.0 L 132.5 97.0 Z"/>
    <path desc="l 0 p 66" fill="rgb(170,176,103)" stroke="rgb(170,176,103)" stroke-width="1" opacity="1.0"
          d="M 144.5 97.0 L 145.5 99.0 L 144.5 97.0 Z"/>
    <path desc="l 9 p 12" fill="rgb(206,93,14)" stroke="rgb(206,93,14)" stroke-width="1" opacity="1.0"
          d="M 75.5 98.0 Q 78.4 100.6 84.5 100.0 L 89.5 98.0 L 89.5 99.0 L 80.5 102.0 L 77.5 101.0 L 77.5 103.0 L 76.0 103.5 L 79.5 104.0 L 83.5 103.0 Q 86.3 104.3 84.0 105.5 L 83.0 107.5 L 83.0 109.5 L 81.5 113.0 L 78.0 110.5 L 78.5 109.0 Q 82.5 109.5 83.0 106.5 Q 81.5 103.5 75.5 105.0 L 70.5 108.0 L 67.0 105.5 L 68.5 103.0 L 73.5 104.0 L 76.0 102.5 L 74.0 99.5 L 75.5 98.0 Z"/>
    <path desc="l 14 p 53" fill="rgb(66,86,27)" stroke="rgb(66,86,27)" stroke-width="1" opacity="1.0"
          d="M 85.5 98.0 L 87.0 98.5 Q 85.3 100.8 80.5 100.0 L 80.5 99.0 L 85.5 98.0 Z"/>
    <path desc="l 1 p 62" fill="rgb(115,141,66)" stroke="rgb(115,141,66)" stroke-width="1" opacity="1.0"
          d="M 0.5 99.0 L 23.0 119.5 L 17.5 120.0 L 5.0 108.5 L 4.5 107.0 L 0.0 104.5 L 0.5 99.0 Z"/>
    <path desc="l 1 p 63" fill="rgb(115,141,66)" stroke="rgb(115,141,66)" stroke-width="1" opacity="1.0"
          d="M 87.5 99.0 L 89.0 99.5 L 86.5 101.0 L 87.5 99.0 Z"/>
    <path desc="l 5 p 12" fill="rgb(235,245,182)" stroke="rgb(235,245,182)" stroke-width="1" opacity="1.0"
          d="M 91.5 99.0 L 90.5 101.0 L 89.0 100.5 L 91.5 99.0 Z"/>
    <path desc="l 2 p 16" fill="rgb(196,216,100)" stroke="rgb(196,216,100)" stroke-width="1" opacity="1.0"
          d="M 93.5 99.0 L 94.5 101.0 L 96.0 100.5 Q 94.5 103.5 93.0 100.5 L 93.5 99.0 Z"/>
    <path desc="l 0 p 67" fill="rgb(170,176,103)" stroke="rgb(170,176,103)" stroke-width="1" opacity="1.0"
          d="M 97.5 99.0 L 96.5 101.0 L 97.5 99.0 Z"/>
    <path desc="l 0 p 68" fill="rgb(170,176,103)" stroke="rgb(170,176,103)" stroke-width="1" opacity="1.0"
          d="M 134.5 99.0 L 137.0 100.5 L 135.5 101.0 L 134.5 99.0 Z"/>
    <path desc="l 3 p 15" fill="rgb(183,200,114)" stroke="rgb(183,200,114)" stroke-width="1" opacity="1.0"
          d="M 92.5 100.0 L 93.5 102.0 L 92.5 100.0 Z"/>
    <path desc="l 7 p 17" fill="rgb(171,201,188)" stroke="rgb(171,201,188)" stroke-width="1" opacity="1.0"
          d="M 110.5 100.0 L 112.5 103.0 L 110.5 100.0 Z"/>
    <path desc="l 3 p 16" fill="rgb(183,200,114)" stroke="rgb(183,200,114)" stroke-width="1" opacity="1.0"
          d="M 83.5 101.0 L 86.0 101.5 L 83.5 102.0 L 83.5 101.0 Z"/>
    <path desc="l 2 p 17" fill="rgb(196,216,100)" stroke="rgb(196,216,100)" stroke-width="1" opacity="1.0"
          d="M 86.5 101.0 L 89.0 101.5 L 86.5 102.0 L 86.5 101.0 Z"/>
    <path desc="l 4 p 19" fill="rgb(229,240,102)" stroke="rgb(229,240,102)" stroke-width="1" opacity="1.0"
          d="M 89.5 101.0 L 91.0 101.5 L 89.5 104.0 L 89.5 101.0 Z"/>
    <path desc="l 14 p 54" fill="rgb(66,86,27)" stroke="rgb(66,86,27)" stroke-width="1" opacity="1.0"
          d="M 99.5 101.0 L 99.0 102.5 L 99.5 104.0 L 101.0 103.5 L 100.0 105.5 L 102.0 105.5 L 101.5 107.0 L 104.0 107.5 Q 101.8 108.8 104.5 110.0 L 107.0 111.5 L 107.5 113.0 L 109.5 112.0 L 110.5 115.0 L 113.0 115.5 L 113.5 117.0 L 115.0 116.5 L 115.5 118.0 L 118.0 119.5 L 115.5 120.0 Q 109.8 120.8 109.0 116.5 L 95.0 104.5 L 95.5 103.0 L 99.5 101.0 Z"/>
    <path desc="l 7 p 18" fill="rgb(171,201,188)" stroke="rgb(171,201,188)" stroke-width="1" opacity="1.0"
          d="M 137.5 101.0 L 138.5 103.0 L 137.5 101.0 Z"/>
    <path desc="l 6 p 11" fill="rgb(217,208,136)" stroke="rgb(217,208,136)" stroke-width="1" opacity="1.0"
          d="M 83.5 102.0 L 84.5 104.0 L 83.5 102.0 Z"/>
    <path desc="l 0 p 69" fill="rgb(170,176,103)" stroke="rgb(170,176,103)" stroke-width="1" opacity="1.0"
          d="M 84.5 102.0 L 86.0 104.5 L 84.5 107.0 L 84.0 105.5 L 85.0 103.5 L 84.5 102.0 Z"/>
    <path desc="l 6 p 12" fill="rgb(217,208,136)" stroke="rgb(217,208,136)" stroke-width="1" opacity="1.0"
          d="M 87.5 102.0 Q 90.5 103.5 87.5 105.0 L 87.5 102.0 Z"/>
    <path desc="l 5 p 13" fill="rgb(235,245,182)" stroke="rgb(235,245,182)" stroke-width="1" opacity="1.0"
          d="M 86.5 103.0 L 87.0 105.5 L 86.0 105.5 L 86.5 103.0 Z"/>
    <path desc="l 15 p 23" fill="rgb(200,210,18)" stroke="rgb(200,210,18)" stroke-width="1" opacity="1.0"
          d="M 90.5 103.0 L 84.5 110.0 L 83.0 109.5 L 84.5 107.0 Q 86.3 109.8 88.0 105.5 L 88.5 104.0 L 90.5 103.0 Z"/>
    <path desc="l 0 p 70" fill="rgb(170,176,103)" stroke="rgb(170,176,103)" stroke-width="1" opacity="1.0"
          d="M 113.5 103.0 L 116.0 104.5 L 114.5 105.0 L 113.5 103.0 Z"/>
    <path desc="l 0 p 71" fill="rgb(170,176,103)" stroke="rgb(170,176,103)" stroke-width="1" opacity="1.0"
          d="M 139.5 103.0 L 148.0 109.5 L 145.5 108.0 L 141.0 104.5 L 139.5 103.0 Z"/>
    <path desc="l 14 p 55" fill="rgb(66,86,27)" stroke="rgb(66,86,27)" stroke-width="1" opacity="1.0"
          d="M 150.5 103.0 Q 153.5 104.5 150.5 106.0 Q 147.5 104.5 150.5 103.0 Z"/>
    <path desc="l 14 p 56" fill="rgb(66,86,27)" stroke="rgb(66,86,27)" stroke-width="1" opacity="1.0"
          d="M 93.5 104.0 L 92.5 106.0 L 93.5 104.0 Z"/>
    <path desc="l 1 p 64" fill="rgb(115,141,66)" stroke="rgb(115,141,66)" stroke-width="1" opacity="1.0"
          d="M 144.5 104.0 L 143.5 106.0 L 144.5 104.0 Z"/>
    <path desc="l 14 p 57" fill="rgb(66,86,27)" stroke="rgb(66,86,27)" stroke-width="1" opacity="1.0"
          d="M 0.5 105.0 L 5.0 107.5 L 13.5 117.0 L 17.0 119.5 L 0.5 120.0 L 0.5 105.0 Z"/>
    <path desc="l 12 p 33" fill="rgb(23,33,44)" stroke="rgb(23,33,44)" stroke-width="1" opacity="1.0"
          d="M 79.5 105.0 L 82.0 105.5 L 79.5 106.0 L 79.5 105.0 Z"/>
    <path desc="l 4 p 20" fill="rgb(229,240,102)" stroke="rgb(229,240,102)" stroke-width="1" opacity="1.0"
          d="M 87.5 105.0 L 85.5 108.0 L 85.0 106.5 L 87.5 105.0 Z"/>
    <path desc="l 1 p 65" fill="rgb(115,141,66)" stroke="rgb(115,141,66)" stroke-width="1" opacity="1.0"
          d="M 93.5 105.0 L 95.5 106.0 Q 96.8 103.8 98.0 106.5 Q 95.8 107.8 98.5 109.0 L 104.5 114.0 Q 105.8 111.8 107.0 114.5 Q 104.3 116.3 108.5 118.0 L 111.0 119.5 L 104.5 120.0 L 102.0 118.5 L 101.5 120.0 L 101.0 118.5 L 101.5 117.0 L 98.5 114.0 L 97.0 114.5 L 99.5 118.0 L 96.5 114.0 L 95.5 112.0 L 94.5 114.0 L 92.0 110.5 Q 94.5 109.0 91.0 107.5 L 91.5 106.0 L 93.5 105.0 Z"/>
    <path desc="l 7 p 19" fill="rgb(171,201,188)" stroke="rgb(171,201,188)" stroke-width="1" opacity="1.0"
          d="M 116.5 105.0 L 117.5 107.0 L 116.5 105.0 Z"/>
    <path desc="l 1 p 66" fill="rgb(115,141,66)" stroke="rgb(115,141,66)" stroke-width="1" opacity="1.0"
          d="M 75.5 106.0 L 78.5 107.0 L 80.0 107.5 L 79.5 109.0 L 78.0 109.5 L 76.5 112.0 L 74.5 111.0 Q 73.3 113.3 72.0 110.5 L 73.5 107.0 L 75.5 106.0 Z"/>
    <path desc="l 0 p 72" fill="rgb(170,176,103)" stroke="rgb(170,176,103)" stroke-width="1" opacity="1.0"
          d="M 78.5 106.0 L 81.0 107.5 L 80.5 109.0 L 79.5 107.0 L 78.5 106.0 Z"/>
    <path desc="l 14 p 58" fill="rgb(66,86,27)" stroke="rgb(66,86,27)" stroke-width="1" opacity="1.0"
          d="M 80.5 106.0 L 83.0 106.5 Q 80.9 109.8 80.5 106.0 Z"/>
    <path desc="l 14 p 59" fill="rgb(66,86,27)" stroke="rgb(66,86,27)" stroke-width="1" opacity="1.0"
          d="M 90.5 106.0 L 97.5 114.0 L 104.0 119.5 L 102.5 120.0 L 101.5 118.0 L 100.5 120.0 Q 93.5 121.5 92.0 117.5 L 84.5 111.0 L 82.5 114.0 L 82.0 112.5 L 90.5 106.0 Z"/>
    <path desc="l 0 p 73" fill="rgb(170,176,103)" stroke="rgb(170,176,103)" stroke-width="1" opacity="1.0"
          d="M 96.5 106.0 L 101.0 109.5 L 99.5 109.0 L 96.5 106.0 Z"/>
    <path desc="l 14 p 60" fill="rgb(66,86,27)" stroke="rgb(66,86,27)" stroke-width="1" opacity="1.0"
          d="M 133.5 108.0 L 134.5 110.0 L 133.5 108.0 Z"/>
    <path desc="l 7 p 20" fill="rgb(171,201,188)" stroke="rgb(171,201,188)" stroke-width="1" opacity="1.0"
          d="M 121.5 109.0 L 124.5 113.0 L 121.0 110.5 L 121.5 109.0 Z"/>
    <path desc="l 0 p 74" fill="rgb(170,176,103)" stroke="rgb(170,176,103)" stroke-width="1" opacity="1.0"
          d="M 79.5 110.0 L 81.0 110.5 L 80.5 112.0 L 79.5 110.0 Z"/>
    <path desc="l 0 p 75" fill="rgb(170,176,103)" stroke="rgb(170,176,103)" stroke-width="1" opacity="1.0"
          d="M 82.5 110.0 L 91.0 117.5 L 83.5 111.0 L 82.5 110.0 Z"/>
    <path desc="l 7 p 21" fill="rgb(171,201,188)" stroke="rgb(171,201,188)" stroke-width="1" opacity="1.0"
          d="M 102.5 111.0 L 103.5 113.0 L 102.5 111.0 Z"/>
    <path desc="l 12 p 34" fill="rgb(23,33,44)" stroke="rgb(23,33,44)" stroke-width="1" opacity="1.0"
          d="M 79.5 112.0 L 82.0 113.5 L 80.5 114.0 L 79.5 112.0 Z"/>
    <path desc="l 1 p 67" fill="rgb(115,141,66)" stroke="rgb(115,141,66)" stroke-width="1" opacity="1.0"
          d="M 83.5 112.0 L 86.5 114.0 L 88.5 114.0 L 93.0 118.5 L 92.5 120.0 L 86.5 120.0 L 83.5 119.0 L 81.5 119.0 L 79.0 117.5 L 78.5 116.0 L 76.0 114.5 L 77.5 115.0 L 79.5 116.0 L 80.5 114.0 L 83.0 113.5 L 83.5 112.0 Z"/>
    <path desc="l 0 p 76" fill="rgb(170,176,103)" stroke="rgb(170,176,103)" stroke-width="1" opacity="1.0"
          d="M 151.5 112.0 L 152.5 114.0 L 151.5 112.0 Z"/>
    <path desc="l 0 p 77" fill="rgb(170,176,103)" stroke="rgb(170,176,103)" stroke-width="1" opacity="1.0"
          d="M 104.5 113.0 L 110.0 117.5 L 108.5 118.0 L 104.5 113.0 Z"/>
    <path desc="l 14 p 61" fill="rgb(66,86,27)" stroke="rgb(66,86,27)" stroke-width="1" opacity="1.0"
          d="M 136.5 113.0 L 137.5 115.0 L 136.5 113.0 Z"/>
    <path desc="l 7 p 22" fill="rgb(171,201,188)" stroke="rgb(171,201,188)" stroke-width="1" opacity="1.0"
          d="M 127.5 114.0 L 129.5 117.0 L 127.5 114.0 Z"/>
    <path desc="l 0 p 78" fill="rgb(170,176,103)" stroke="rgb(170,176,103)" stroke-width="1" opacity="1.0"
          d="M 156.5 116.0 L 157.5 118.0 L 156.5 116.0 Z"/>
    <path desc="l 0 p 79" fill="rgb(170,176,103)" stroke="rgb(170,176,103)" stroke-width="1" opacity="1.0"
          d="M 130.5 117.0 L 134.0 119.5 L 132.5 119.0 L 130.5 117.0 Z"/>
</svg>